<?xml version="1.0" encoding="UTF-8"?>
<!DOCTYPE svg PUBLIC "-//W3C//DTD SVG 1.1//EN" "http://www.w3.org/Graphics/SVG/1.1/DTD/svg11.dtd">
<!-- Creator: CorelDRAW X7 -->
<svg xmlns="http://www.w3.org/2000/svg" xml:space="preserve" width="3.33334in" height="3.33333in" version="1.1" shape-rendering="geometricPrecision" text-rendering="geometricPrecision" image-rendering="optimizeQuality" fill-rule="evenodd" clip-rule="evenodd"
viewBox="0 0 2534 2534"
 xmlns:xlink="http://www.w3.org/1999/xlink">
 <g id="Layer_x0020_1">
  <metadata id="CorelCorpID_0Corel-Layer"/>
  <rect fill="#00D2D3" width="2534" height="2534" rx="335" ry="383"/>
  <path fill="#FEFEFE" d="M1047 1078c0,-122 98,-220 220,-220 122,0 221,98 221,220 0,122 -99,221 -221,221 -122,0 -220,-99 -220,-221zm220 -671c-371,0 -671,300 -671,671 0,371 300,672 671,672l0 378c0,0 672,-239 672,-1050 0,-371 -301,-671 -672,-671z"/>
 </g>
</svg>
