<?xml version="1.0" standalone="no"?>
<!DOCTYPE svg PUBLIC "-//W3C//DTD SVG 20010904//EN"
 "http://www.w3.org/TR/2001/REC-SVG-20010904/DTD/svg10.dtd">
<svg version="1.0" xmlns="http://www.w3.org/2000/svg"
 width="8192.000000pt" height="5583.000000pt" viewBox="0 0 8192.000000 5583.000000"
 preserveAspectRatio="xMidYMid meet">

<g transform="translate(0.000000,5583.000000) scale(0.100000,-0.100000)"
fill="#000000" stroke="none">
<path d="M0 27915 l0 -27915 35 0 35 0 0 27869 c0 23415 2 27870 14 27880 10
8 10679 11 40925 11 l40911 0 0 35 0 35 -40960 0 -40960 0 0 -27915z"/>
<path d="M7800 39164 c-41 -14 -191 -92 -235 -123 -137 -96 -337 -298 -465
-468 -16 -21 -48 -64 -72 -95 -24 -31 -51 -70 -61 -85 -9 -15 -37 -55 -62 -88
-24 -33 -52 -73 -61 -90 -9 -16 -26 -41 -39 -55 -12 -14 -35 -47 -51 -74 -44
-74 -66 -110 -98 -157 -16 -24 -39 -60 -51 -79 -12 -19 -40 -64 -63 -99 -23
-35 -42 -68 -42 -73 0 -5 -15 -31 -32 -58 -32 -48 -55 -85 -114 -184 -59 -100
-94 -162 -115 -206 -12 -25 -32 -58 -44 -75 -13 -16 -32 -50 -44 -75 -12 -25
-37 -72 -57 -105 -19 -33 -46 -82 -60 -110 -14 -27 -43 -81 -64 -120 -52 -95
-106 -196 -146 -277 -19 -37 -38 -69 -43 -72 -5 -4 -17 -28 -26 -55 -9 -27
-22 -55 -30 -61 -8 -7 -24 -37 -35 -67 -11 -31 -29 -67 -40 -80 -10 -13 -24
-41 -31 -61 -7 -20 -22 -50 -34 -67 -13 -16 -28 -47 -35 -69 -7 -21 -23 -54
-36 -74 -13 -19 -28 -48 -32 -66 -5 -17 -21 -49 -36 -70 -14 -21 -26 -43 -26
-49 0 -11 -71 -162 -96 -207 -8 -14 -22 -41 -31 -60 -8 -19 -31 -69 -50 -110
-19 -41 -47 -102 -62 -135 -56 -121 -99 -211 -130 -275 -17 -36 -38 -85 -46
-110 -9 -24 -22 -51 -29 -60 -8 -8 -22 -40 -32 -70 -9 -30 -23 -62 -30 -71 -8
-8 -22 -40 -33 -70 -10 -30 -30 -74 -45 -99 -14 -25 -26 -51 -26 -58 0 -8 -15
-46 -34 -85 -19 -40 -38 -85 -42 -102 -4 -16 -17 -46 -30 -65 -13 -19 -26 -48
-29 -65 -4 -16 -20 -55 -36 -86 -16 -31 -29 -63 -29 -70 0 -8 -16 -45 -34 -82
-19 -38 -38 -83 -42 -100 -3 -18 -17 -50 -29 -72 -13 -22 -29 -60 -35 -85 -7
-25 -22 -65 -35 -90 -13 -25 -29 -65 -36 -90 -6 -25 -19 -56 -29 -70 -9 -14
-27 -56 -39 -95 -13 -38 -29 -80 -37 -92 -8 -12 -20 -46 -28 -75 -7 -29 -23
-69 -34 -88 -11 -19 -27 -61 -36 -92 -9 -32 -28 -79 -41 -104 -14 -26 -25 -56
-25 -68 0 -12 -13 -49 -30 -83 -16 -35 -32 -80 -36 -100 -4 -21 -17 -59 -30
-84 -12 -25 -30 -74 -39 -110 -9 -35 -25 -77 -35 -94 -10 -16 -26 -61 -35
-100 -9 -38 -24 -81 -32 -94 -9 -14 -24 -57 -34 -97 -10 -40 -27 -91 -39 -114
-11 -22 -25 -64 -30 -92 -6 -28 -21 -74 -34 -102 -13 -28 -30 -80 -37 -116 -6
-36 -20 -82 -31 -102 -10 -21 -25 -70 -33 -109 -9 -40 -24 -92 -35 -117 -12
-26 -28 -80 -36 -122 -9 -41 -25 -95 -36 -119 -11 -23 -24 -71 -29 -105 -5
-33 -21 -90 -34 -126 -14 -36 -30 -92 -36 -125 -6 -33 -21 -87 -34 -120 -12
-34 -26 -85 -30 -115 -4 -30 -16 -79 -27 -110 -11 -30 -27 -89 -35 -130 -8
-41 -27 -113 -43 -160 -15 -47 -31 -112 -35 -145 -4 -33 -20 -99 -36 -148 -16
-48 -29 -100 -29 -115 -1 -31 -22 -123 -39 -166 -6 -15 -18 -72 -26 -125 -9
-53 -26 -130 -39 -171 -13 -41 -29 -115 -35 -163 -7 -49 -21 -116 -32 -150
-10 -34 -24 -98 -30 -142 -5 -44 -21 -123 -35 -175 -13 -52 -31 -146 -40 -210
-8 -63 -24 -145 -34 -181 -11 -36 -25 -113 -30 -170 -6 -57 -21 -149 -34 -204
-13 -55 -27 -134 -31 -175 -9 -106 -22 -191 -44 -295 -11 -49 -25 -151 -31
-225 -7 -74 -21 -182 -31 -240 -11 -58 -26 -192 -34 -299 -8 -106 -24 -259
-35 -340 -33 -233 -62 -1107 -48 -1451 15 -385 28 -568 48 -675 11 -60 27
-189 35 -285 8 -96 19 -188 25 -205 5 -16 22 -79 36 -140 14 -60 34 -119 43
-130 10 -11 25 -33 32 -50 16 -33 86 -84 169 -122 30 -14 62 -31 70 -38 16
-15 163 -68 217 -80 47 -9 101 9 173 60 35 25 71 45 80 45 24 0 40 -21 40 -50
0 -15 9 -35 20 -45 19 -17 26 -18 66 -7 86 23 112 11 130 -63 14 -57 76 -155
122 -193 l45 -37 147 0 c139 0 148 1 182 25 87 59 96 111 108 610 8 382 14
464 46 634 8 44 19 131 24 195 6 64 21 161 35 216 13 55 29 135 35 178 5 42
19 105 31 139 11 34 27 103 35 153 8 49 25 117 38 150 13 33 27 83 31 110 4
28 18 77 31 110 13 34 28 85 34 114 5 29 21 79 35 110 13 31 29 78 35 106 6
27 20 70 32 95 11 25 26 71 34 103 8 31 25 79 38 105 13 27 28 65 32 86 3 21
17 57 30 80 12 22 28 63 35 91 7 27 25 74 41 103 15 30 28 61 28 69 0 9 13 39
29 67 16 28 32 64 35 80 4 16 23 61 42 100 19 39 34 78 34 86 0 9 11 31 23 50
13 19 31 56 40 83 9 26 25 59 36 74 12 14 26 43 31 65 6 21 22 55 35 74 14 20
29 50 33 68 5 17 21 49 36 70 14 22 29 51 33 65 3 14 17 40 30 57 12 17 28 46
34 65 7 19 22 48 34 64 12 17 26 41 30 55 7 23 31 66 94 170 11 19 27 49 35
65 8 17 31 55 50 84 20 29 36 57 36 61 0 4 15 30 33 58 17 27 46 73 62 102 17
28 40 66 52 83 12 18 32 50 44 72 12 22 29 49 38 60 10 11 31 42 47 69 45 74
107 166 193 286 22 30 48 69 57 85 9 17 29 44 43 61 14 17 44 57 66 88 46 67
56 80 246 320 149 189 440 515 580 651 240 231 611 543 814 684 33 22 98 68
145 101 46 33 88 60 92 60 5 0 31 16 59 35 28 19 55 35 60 35 5 0 31 14 59 31
65 40 159 52 190 24 18 -17 20 -31 20 -171 0 -169 -12 -275 -41 -370 -11 -34
-24 -100 -30 -145 -5 -45 -21 -113 -34 -150 -13 -37 -27 -94 -31 -126 -4 -32
-16 -83 -26 -113 -11 -30 -26 -84 -34 -120 -26 -125 -37 -165 -51 -192 -7 -15
-20 -63 -27 -105 -8 -43 -23 -98 -34 -123 -11 -25 -23 -66 -26 -90 -9 -56 -35
-138 -52 -165 -7 -11 -18 -49 -24 -85 -6 -36 -20 -82 -31 -103 -10 -20 -26
-70 -35 -110 -9 -39 -24 -85 -34 -102 -10 -16 -25 -58 -34 -92 -8 -35 -25 -81
-36 -102 -11 -22 -24 -61 -30 -87 -6 -27 -22 -69 -34 -95 -13 -25 -27 -62 -31
-80 -4 -19 -19 -59 -35 -89 -15 -30 -31 -71 -35 -90 -4 -19 -23 -66 -41 -105
-19 -38 -34 -77 -34 -86 0 -10 -14 -43 -30 -74 -17 -31 -30 -64 -30 -74 0 -9
-12 -36 -26 -61 -15 -25 -34 -67 -44 -95 -10 -27 -29 -72 -44 -99 -14 -27 -26
-55 -26 -63 0 -8 -13 -40 -30 -71 -16 -31 -48 -97 -71 -147 -22 -49 -48 -101
-56 -115 -8 -14 -21 -41 -29 -60 -25 -60 -97 -204 -117 -232 -10 -15 -23 -42
-29 -60 -6 -18 -22 -49 -34 -68 -13 -19 -29 -51 -35 -70 -7 -19 -22 -47 -35
-62 -12 -15 -28 -44 -34 -65 -7 -21 -21 -47 -31 -58 -10 -11 -26 -38 -36 -60
-10 -22 -28 -54 -40 -72 -13 -17 -23 -35 -23 -40 0 -4 -16 -32 -35 -60 -19
-29 -35 -57 -35 -63 0 -7 -14 -31 -30 -54 -17 -23 -38 -56 -48 -73 -9 -18 -37
-64 -62 -103 -25 -39 -52 -83 -61 -98 -8 -15 -37 -60 -65 -101 -27 -40 -60
-90 -74 -111 -110 -166 -171 -253 -210 -304 -63 -82 -97 -127 -117 -156 -67
-96 -398 -474 -499 -570 -133 -126 -378 -330 -397 -330 -4 0 -26 -13 -49 -28
-79 -53 -145 -90 -184 -102 -22 -7 -52 -20 -69 -30 -16 -10 -55 -26 -85 -36
-30 -10 -76 -30 -101 -46 -25 -15 -52 -28 -60 -28 -8 0 -40 -20 -71 -45 -77
-61 -78 -85 -6 -162 29 -30 66 -62 83 -70 16 -8 39 -23 50 -33 26 -23 284
-155 332 -170 21 -6 58 -22 83 -34 25 -13 68 -29 95 -35 28 -7 77 -23 110 -36
33 -13 96 -29 140 -35 44 -7 121 -21 170 -31 59 -13 148 -22 260 -26 157 -5
175 -4 230 16 33 12 81 28 107 36 59 19 271 134 346 188 241 175 376 291 586
502 135 137 447 487 516 580 19 26 52 67 73 92 35 42 135 173 167 219 29 42
139 189 164 220 14 18 26 35 26 39 0 5 17 31 38 59 20 28 47 65 60 81 12 17
29 44 38 60 9 17 26 41 39 55 12 14 35 47 51 73 62 104 93 151 156 244 15 23
28 44 28 48 0 4 15 28 33 54 19 25 39 60 46 78 7 18 20 38 28 45 8 6 27 34 41
61 15 27 36 65 47 85 11 20 35 59 53 86 17 28 32 55 32 62 0 6 14 28 30 49 17
21 33 50 37 64 3 14 14 35 23 46 10 11 29 43 43 70 14 28 41 79 60 115 113
211 169 320 224 435 8 17 21 41 28 55 7 14 34 70 60 125 25 55 56 120 69 145
13 25 29 63 36 85 7 22 21 52 32 67 10 15 23 42 29 60 6 18 23 60 39 93 36 76
66 151 97 240 14 39 31 77 38 85 7 8 22 46 34 84 13 38 31 86 41 106 10 20 22
54 26 75 3 22 17 61 30 86 12 25 30 73 38 106 9 33 25 80 36 105 11 25 26 79
34 119 8 41 23 101 34 134 11 33 26 98 32 145 6 47 22 128 35 180 13 52 26
131 30 175 3 44 19 175 35 290 25 178 30 257 36 515 7 372 -4 579 -39 705 -13
50 -29 111 -35 137 -6 25 -23 63 -37 84 -14 20 -25 41 -25 47 0 6 -12 26 -27
46 -16 19 -37 50 -48 67 -95 152 -371 439 -546 569 -51 38 -140 80 -249 119
-30 11 -81 48 -153 113 -142 129 -226 199 -257 215 -14 7 -47 27 -74 45 -26
18 -55 33 -63 33 -8 0 -33 11 -56 24 -26 16 -103 38 -205 60 -201 44 -295 47
-474 12 -67 -13 -143 -27 -168 -31 -25 -4 -76 -20 -114 -36 -37 -16 -75 -29
-84 -29 -23 0 -202 -88 -235 -116 -16 -13 -33 -24 -38 -24 -5 0 -44 -26 -86
-57 -42 -32 -107 -81 -145 -110 -167 -125 -590 -530 -904 -864 -78 -83 -249
-281 -344 -398 -41 -51 -91 -112 -110 -136 -19 -23 -51 -64 -70 -89 -44 -59
-89 -118 -117 -155 -13 -16 -50 -69 -83 -117 -138 -202 -194 -282 -231 -334
-53 -73 -85 -118 -114 -160 -53 -77 -52 -76 -72 -64 -25 16 -21 101 8 174 12
30 30 93 39 140 10 47 27 106 38 131 11 25 27 81 36 125 9 43 25 96 36 116 10
20 24 65 30 100 7 34 22 88 35 118 12 30 28 81 35 113 6 32 22 82 35 110 12
29 26 72 30 97 4 25 20 77 35 115 15 39 30 87 34 108 4 21 16 59 28 85 11 26
29 81 39 122 11 41 28 91 39 111 10 21 23 63 29 94 6 32 22 82 35 112 14 29
30 78 35 108 6 30 19 72 30 93 11 22 28 73 37 113 9 41 22 84 30 96 7 12 23
56 34 98 11 43 30 95 41 116 11 22 24 62 29 89 5 28 21 75 35 105 15 30 29 71
32 92 3 21 18 65 33 98 16 33 31 78 35 100 4 22 18 61 31 86 13 26 28 68 35
95 7 27 22 69 34 94 12 25 30 71 39 104 10 32 26 70 36 85 11 14 24 47 30 73
5 25 19 62 30 81 11 19 27 60 35 92 9 32 24 69 34 84 10 14 24 46 31 71 7 25
23 67 37 94 14 27 32 72 40 100 8 28 24 63 34 77 10 14 23 47 28 72 6 25 20
61 31 79 11 19 29 61 40 93 11 32 27 69 34 80 8 12 21 45 30 74 8 28 24 64 35
79 10 15 24 46 30 69 6 23 25 67 41 98 17 32 30 64 30 73 0 8 13 39 29 67 16
29 34 71 41 94 6 23 22 57 35 77 13 19 27 49 30 67 4 18 20 55 36 83 16 28 29
58 29 67 0 8 13 39 28 68 15 30 36 77 46 104 11 28 27 61 36 75 10 14 23 45
30 70 7 24 21 55 31 69 10 13 26 46 34 73 8 27 23 61 33 76 11 15 23 38 27 52
4 14 23 59 42 100 20 41 48 102 63 135 16 33 46 98 68 145 22 47 43 96 47 109
4 12 18 39 31 58 13 20 28 53 34 73 6 21 18 48 29 61 10 13 26 46 35 73 9 27
26 60 36 74 11 13 25 42 30 64 6 21 22 55 35 74 14 20 29 51 34 70 5 18 18 46
29 61 10 15 26 46 33 68 8 22 24 55 36 73 12 18 27 49 34 69 6 20 25 57 40 82
16 25 29 52 29 61 0 9 14 37 30 63 17 26 30 51 30 55 0 7 69 152 101 212 10
19 39 78 65 130 45 93 56 115 87 175 8 17 31 64 50 105 19 41 53 114 76 161
22 47 41 92 41 100 0 8 13 34 30 59 16 24 32 58 36 75 4 16 20 53 35 81 16 28
29 58 29 68 0 9 13 42 29 74 15 31 34 75 41 97 7 22 24 65 38 95 18 37 28 76
30 120 l4 66 -55 65 c-60 70 -123 126 -227 202 -178 130 -224 178 -305 316
-67 114 -93 131 -199 130 -45 0 -88 -3 -96 -5z m107 -710 c3 -8 -3 -25 -15
-37 -11 -12 -23 -37 -27 -55 -4 -18 -17 -45 -31 -61 -13 -16 -33 -48 -44 -72
-19 -41 -33 -64 -87 -142 -13 -18 -30 -48 -39 -67 -9 -19 -29 -50 -45 -68 -16
-18 -29 -39 -29 -47 0 -7 -11 -27 -25 -43 -14 -17 -32 -46 -40 -64 -7 -19 -21
-41 -31 -49 -9 -7 -25 -34 -36 -58 -10 -25 -30 -55 -43 -68 -13 -14 -27 -38
-30 -54 -4 -16 -17 -42 -30 -57 -13 -16 -31 -47 -40 -69 -9 -23 -23 -44 -30
-47 -7 -2 -19 -22 -25 -43 -7 -21 -23 -50 -36 -65 -12 -15 -28 -44 -35 -65 -6
-21 -24 -53 -40 -70 -15 -18 -31 -48 -34 -67 -4 -19 -18 -45 -31 -57 -13 -12
-29 -40 -34 -60 -6 -21 -21 -51 -34 -66 -13 -15 -29 -46 -36 -68 -7 -22 -21
-49 -31 -61 -10 -11 -26 -41 -35 -66 -8 -25 -24 -54 -35 -64 -10 -9 -24 -34
-29 -54 -6 -21 -21 -53 -33 -72 -13 -18 -29 -49 -36 -68 -6 -19 -22 -51 -35
-70 -13 -19 -27 -46 -31 -60 -4 -14 -20 -45 -35 -70 -15 -25 -31 -55 -35 -68
-4 -13 -38 -84 -76 -159 -38 -75 -69 -142 -69 -148 0 -5 -11 -26 -23 -45 -13
-19 -32 -58 -41 -87 -9 -28 -23 -57 -31 -63 -8 -6 -23 -40 -35 -75 -12 -35
-27 -69 -35 -75 -8 -6 -21 -34 -31 -62 -9 -28 -27 -66 -40 -85 -12 -18 -26
-48 -30 -66 -4 -18 -17 -48 -31 -67 -13 -19 -28 -52 -34 -73 -5 -20 -21 -54
-34 -74 -14 -20 -25 -40 -25 -46 0 -5 -20 -54 -45 -108 -25 -54 -45 -104 -45
-112 0 -7 -11 -28 -24 -46 -14 -18 -30 -55 -36 -81 -7 -27 -18 -54 -25 -60 -8
-6 -21 -35 -31 -63 -9 -29 -25 -65 -34 -82 -10 -16 -30 -60 -43 -97 -14 -36
-32 -77 -40 -90 -8 -13 -20 -40 -27 -62 -7 -21 -25 -63 -41 -93 -16 -30 -29
-61 -29 -69 0 -8 -13 -40 -29 -72 -15 -31 -34 -75 -41 -97 -7 -22 -26 -65 -42
-96 -15 -31 -28 -63 -28 -72 0 -8 -13 -41 -30 -72 -16 -31 -30 -63 -30 -71 0
-7 -16 -46 -35 -87 -19 -41 -35 -80 -35 -88 0 -8 -16 -45 -35 -83 -19 -39 -35
-76 -35 -82 0 -7 -16 -49 -35 -93 -19 -43 -35 -86 -35 -95 0 -9 -13 -42 -30
-73 -16 -31 -30 -65 -30 -75 0 -11 -15 -52 -34 -91 -18 -40 -37 -87 -41 -106
-4 -18 -15 -48 -25 -65 -10 -17 -26 -58 -35 -91 -10 -33 -26 -74 -36 -91 -10
-16 -25 -55 -33 -85 -7 -30 -25 -79 -39 -109 -14 -30 -28 -71 -32 -90 -4 -19
-16 -51 -26 -71 -10 -21 -27 -68 -38 -105 -11 -38 -31 -96 -45 -129 -14 -33
-26 -69 -26 -80 0 -11 -12 -45 -26 -75 -14 -30 -32 -84 -40 -120 -8 -36 -24
-83 -34 -105 -11 -22 -26 -69 -33 -105 -8 -36 -24 -86 -35 -111 -11 -25 -26
-72 -33 -105 -7 -32 -22 -82 -34 -109 -12 -28 -30 -87 -40 -130 -9 -44 -24
-93 -32 -108 -8 -16 -22 -65 -33 -110 -10 -45 -30 -115 -44 -154 -14 -40 -26
-81 -26 -91 0 -11 -9 -45 -21 -78 -11 -32 -29 -96 -40 -141 -10 -45 -28 -106
-39 -135 -11 -29 -26 -88 -35 -132 -8 -43 -23 -102 -34 -131 -11 -28 -25 -81
-31 -116 -7 -35 -22 -95 -35 -134 -13 -38 -29 -98 -35 -133 -6 -34 -22 -95
-35 -135 -12 -39 -26 -94 -30 -122 -4 -27 -19 -93 -35 -145 -16 -52 -33 -125
-39 -161 -6 -36 -20 -92 -31 -124 -11 -32 -27 -99 -35 -149 -8 -50 -23 -119
-35 -152 -11 -34 -24 -95 -30 -135 -6 -41 -21 -112 -35 -159 -13 -47 -29 -117
-34 -157 -6 -40 -18 -98 -27 -130 -9 -32 -23 -98 -31 -148 -8 -49 -27 -146
-43 -215 -16 -69 -32 -150 -35 -180 -3 -30 -17 -103 -30 -161 -14 -58 -29
-150 -35 -205 -6 -54 -20 -135 -31 -179 -11 -44 -24 -123 -30 -175 -5 -52 -17
-140 -26 -195 -8 -55 -21 -138 -28 -185 -8 -47 -18 -159 -24 -250 -6 -96 -21
-217 -36 -289 -14 -68 -25 -136 -25 -151 0 -41 -20 -90 -36 -90 -8 0 -22 17
-30 37 -14 32 -15 61 -5 222 6 103 22 256 36 341 15 85 30 205 35 265 5 61 19
151 30 200 11 50 27 151 36 225 8 74 24 176 35 225 11 50 26 142 35 205 8 63
24 153 35 200 11 47 26 134 34 195 8 60 24 142 35 180 11 39 25 108 31 155 5
46 21 125 34 175 14 50 29 125 35 166 6 41 21 110 35 154 13 44 26 103 30 130
9 73 25 145 40 186 8 21 21 77 30 127 8 49 24 116 35 148 11 32 25 90 31 129
6 38 24 112 40 164 16 51 29 104 29 116 0 13 11 57 25 98 14 42 32 109 40 151
8 41 25 105 38 143 13 37 27 90 31 116 4 26 18 78 32 115 13 37 31 101 40 142
9 41 22 87 30 103 8 15 23 65 33 110 10 45 30 115 45 154 14 40 26 82 26 94 0
11 13 53 28 92 16 40 35 101 41 137 7 35 21 80 31 100 10 19 23 62 30 95 7 33
21 77 31 97 11 21 28 74 39 119 10 44 24 86 29 93 6 7 21 53 34 102 14 50 31
104 40 120 8 16 23 59 32 94 9 35 25 80 34 99 10 20 26 67 35 104 9 38 23 78
31 90 7 12 23 56 34 99 11 42 29 91 40 110 11 18 26 61 35 96 9 34 22 72 30
85 8 12 22 47 30 78 8 31 23 74 35 96 11 22 25 62 32 89 7 27 21 66 31 88 11
21 30 68 42 105 13 36 33 91 46 121 52 129 64 158 82 215 11 33 33 87 49 119
16 33 29 65 29 73 0 7 11 35 24 61 13 26 33 77 45 114 13 37 26 70 31 73 5 3
16 29 25 58 9 28 27 72 40 97 12 25 26 58 29 74 4 16 23 61 42 100 19 39 34
77 34 83 0 7 16 42 35 79 19 36 35 72 35 81 0 8 11 33 24 56 13 23 27 53 31
67 9 33 79 191 114 260 16 30 32 69 36 87 3 17 13 37 20 43 8 6 19 28 25 48 7
20 28 71 47 112 19 41 48 102 63 135 35 78 87 188 139 295 22 47 41 90 41 96
0 6 11 27 25 47 13 20 31 57 40 83 9 26 25 58 36 72 11 14 24 45 30 68 6 24
19 50 30 60 10 9 26 39 35 68 9 28 25 61 36 72 11 12 26 43 33 69 8 25 26 60
39 76 14 16 28 45 32 64 3 18 14 41 25 51 10 9 26 39 35 68 9 28 27 64 40 79
13 15 28 46 34 67 6 22 17 45 24 53 18 18 46 73 46 91 0 8 11 28 25 44 14 17
32 50 40 73 9 24 24 53 34 64 10 11 26 40 35 65 10 25 26 54 35 65 10 11 23
35 29 52 6 18 22 48 35 65 14 18 30 49 36 69 7 20 20 44 31 54 11 10 25 34 31
54 7 20 22 48 35 63 12 15 28 44 34 65 7 21 23 49 36 63 13 14 29 41 35 60 6
19 22 46 34 60 12 14 28 41 34 61 7 20 20 44 31 54 11 10 24 34 31 54 6 20 22
47 35 61 13 14 29 41 35 60 7 19 25 50 41 68 15 18 28 39 28 47 0 7 11 27 25
43 14 17 32 47 41 69 9 21 29 53 45 71 16 18 29 39 29 47 0 7 11 26 24 42 13
15 33 46 45 68 25 47 60 98 94 140 13 17 32 45 41 63 9 18 27 38 40 44 13 5
29 21 35 34 12 27 29 31 38 8z m211 -53 c2 -13 -5 -32 -17 -45 -11 -12 -27
-38 -36 -58 -8 -21 -24 -42 -34 -48 -11 -5 -25 -27 -32 -47 -6 -21 -25 -53
-40 -71 -16 -18 -29 -41 -29 -50 0 -10 -13 -32 -29 -49 -16 -18 -35 -49 -42
-70 -6 -21 -22 -48 -35 -60 -13 -12 -26 -34 -30 -50 -4 -15 -20 -43 -36 -61
-15 -18 -28 -41 -28 -52 0 -11 -14 -35 -31 -54 -17 -20 -35 -52 -41 -73 -6
-21 -23 -53 -39 -71 -16 -18 -29 -41 -29 -52 0 -11 -13 -34 -29 -52 -16 -18
-34 -52 -40 -74 -6 -22 -21 -49 -35 -61 -13 -11 -26 -36 -30 -56 -4 -20 -18
-46 -31 -59 -14 -13 -30 -41 -36 -63 -6 -22 -21 -51 -34 -65 -13 -14 -28 -43
-34 -66 -6 -22 -22 -51 -36 -64 -13 -13 -28 -38 -31 -57 -3 -18 -19 -49 -34
-69 -16 -19 -32 -49 -36 -67 -3 -18 -17 -45 -30 -60 -13 -15 -29 -47 -36 -70
-6 -23 -24 -57 -40 -75 -15 -18 -28 -43 -28 -56 0 -13 -13 -40 -30 -61 -16
-21 -35 -56 -41 -79 -6 -22 -21 -52 -34 -66 -13 -14 -27 -42 -30 -63 -4 -21
-19 -52 -32 -68 -14 -16 -31 -50 -39 -76 -8 -26 -23 -56 -33 -67 -11 -12 -25
-41 -31 -66 -6 -25 -20 -54 -30 -65 -24 -28 -40 -60 -40 -83 0 -11 -13 -36
-30 -57 -16 -20 -32 -54 -36 -74 -4 -20 -17 -51 -31 -69 -13 -17 -31 -54 -39
-81 -7 -26 -23 -60 -34 -74 -12 -15 -27 -48 -35 -75 -8 -27 -22 -55 -30 -62
-8 -7 -24 -42 -35 -79 -10 -36 -28 -74 -39 -83 -11 -9 -23 -34 -27 -55 -3 -21
-17 -54 -31 -75 -13 -20 -31 -57 -38 -83 -8 -25 -24 -60 -36 -76 -12 -17 -26
-49 -31 -72 -5 -23 -19 -58 -32 -77 -13 -20 -31 -61 -40 -91 -8 -31 -23 -62
-31 -69 -8 -7 -22 -38 -31 -69 -9 -31 -26 -72 -39 -91 -13 -19 -26 -51 -30
-70 -4 -19 -18 -53 -31 -75 -13 -22 -32 -70 -44 -107 -11 -36 -26 -71 -34 -77
-8 -7 -20 -35 -27 -64 -6 -29 -20 -63 -31 -76 -10 -13 -25 -49 -34 -80 -9 -31
-27 -75 -40 -98 -13 -23 -29 -64 -35 -91 -6 -28 -17 -56 -25 -63 -7 -6 -23
-43 -35 -83 -12 -39 -32 -89 -44 -111 -13 -22 -26 -56 -30 -75 -4 -19 -18 -54
-31 -76 -13 -23 -28 -63 -34 -90 -6 -27 -22 -70 -35 -95 -13 -25 -29 -65 -35
-89 -7 -25 -22 -65 -35 -90 -12 -25 -28 -67 -34 -95 -7 -27 -21 -63 -31 -80
-10 -16 -26 -59 -35 -95 -9 -36 -25 -80 -35 -97 -11 -18 -24 -52 -30 -75 -6
-24 -24 -77 -40 -118 -28 -74 -38 -101 -87 -250 -14 -41 -33 -94 -43 -117 -11
-23 -26 -70 -35 -105 -9 -35 -27 -85 -39 -113 -13 -27 -27 -68 -31 -90 -4 -22
-18 -66 -31 -97 -13 -32 -30 -84 -38 -115 -8 -32 -23 -79 -34 -104 -11 -25
-26 -72 -33 -105 -7 -32 -23 -82 -35 -109 -12 -28 -27 -77 -34 -110 -7 -33
-22 -85 -35 -115 -13 -30 -28 -82 -35 -115 -6 -33 -22 -87 -35 -120 -13 -33
-26 -80 -30 -105 -4 -25 -20 -79 -35 -120 -15 -41 -30 -97 -34 -123 -4 -27
-18 -76 -30 -110 -13 -34 -31 -100 -40 -146 -10 -47 -23 -96 -31 -111 -8 -15
-21 -64 -30 -111 -9 -46 -27 -115 -40 -154 -13 -38 -29 -97 -35 -130 -5 -33
-19 -82 -29 -110 -10 -27 -26 -88 -35 -135 -9 -47 -25 -109 -36 -137 -11 -29
-25 -85 -31 -125 -6 -40 -21 -103 -34 -140 -13 -36 -28 -99 -35 -140 -6 -40
-22 -102 -34 -138 -13 -36 -27 -93 -31 -125 -4 -33 -20 -96 -35 -140 -15 -44
-30 -109 -34 -145 -4 -36 -21 -95 -37 -132 -16 -36 -29 -80 -29 -97 0 -83 -29
-151 -66 -151 -4 0 -4 55 -1 123 4 96 11 136 31 188 13 36 28 99 32 140 4 41
17 106 30 144 14 39 31 115 39 170 9 55 26 129 39 165 13 36 26 90 30 122 3
31 19 96 35 145 15 48 31 113 34 143 4 31 18 89 32 130 14 41 30 107 36 145 6
39 21 97 34 130 12 33 28 92 34 130 7 39 21 95 32 125 12 30 27 89 35 130 8
41 23 98 34 127 10 28 24 82 31 120 6 37 24 102 39 143 15 41 30 96 34 123 4
26 16 68 27 92 11 25 27 78 35 117 8 39 25 96 38 127 13 31 29 85 36 121 6 35
20 81 30 101 11 20 26 66 34 103 9 37 23 80 31 96 8 16 24 66 35 110 10 45 24
87 29 94 6 7 21 53 35 102 13 49 33 109 43 134 11 25 25 67 32 94 7 27 20 65
30 85 10 20 26 65 35 101 9 36 23 75 31 87 8 12 24 57 35 100 12 43 28 88 36
100 8 12 20 47 28 77 8 30 28 86 45 124 17 39 31 78 31 87 0 8 11 37 25 64 13
27 29 70 36 97 6 27 22 68 35 90 13 23 28 62 34 88 5 25 24 75 40 110 17 34
30 70 30 78 0 8 11 36 24 61 14 25 31 68 39 95 8 27 26 71 40 98 13 27 28 65
32 84 4 19 18 53 30 75 13 22 29 60 35 85 7 25 25 70 40 100 16 30 31 69 35
87 3 18 15 42 25 55 10 13 25 47 34 77 8 29 24 67 35 85 11 18 29 61 40 95 11
35 26 70 35 79 8 10 21 40 28 67 7 28 23 64 35 81 13 17 26 46 30 65 3 19 21
62 40 97 18 35 33 71 33 81 0 9 12 34 26 55 15 21 32 61 40 89 7 27 22 59 33
71 11 11 25 44 32 71 7 28 20 59 30 70 23 28 35 54 43 93 3 19 15 45 26 59 11
14 27 48 35 75 8 27 23 60 35 75 11 14 27 48 34 74 8 27 26 64 40 81 13 18 28
50 31 71 4 21 18 51 30 66 13 15 31 52 39 83 9 30 25 63 36 73 10 9 24 38 30
65 6 27 20 56 31 66 11 9 26 39 34 66 8 27 26 63 39 79 14 16 28 46 32 67 3
20 17 48 29 62 13 14 29 45 36 70 7 25 23 58 36 73 12 15 27 47 34 70 6 23 21
53 34 67 13 14 28 44 35 67 6 24 20 51 31 62 11 10 27 40 34 66 8 25 25 60 39
76 13 15 27 43 31 61 4 18 18 44 31 58 13 14 30 47 38 73 8 26 23 55 34 65 11
9 27 40 37 69 9 28 22 54 29 56 8 3 21 28 30 55 9 27 25 57 36 67 11 10 26 39
35 65 9 26 24 55 35 65 11 10 27 40 36 67 9 27 22 52 30 55 7 2 21 26 30 51
10 26 27 58 39 72 13 14 28 43 35 65 7 22 23 51 35 65 12 14 28 41 34 61 6 20
22 46 35 58 13 13 27 37 30 55 4 18 17 43 31 56 13 13 30 39 36 59 7 20 24 50
39 68 16 17 31 45 35 61 3 17 15 38 26 48 12 10 27 34 35 54 8 19 25 46 38 60
13 14 28 40 34 58 7 19 23 42 36 53 13 11 27 33 31 49 4 17 18 38 31 47 14 9
32 29 40 45 18 35 47 34 52 -1z m1354 -8654 c0 -20 -9 -62 -20 -94 -11 -32
-25 -97 -31 -145 -7 -48 -23 -122 -36 -165 -14 -43 -30 -104 -36 -137 -6 -32
-19 -82 -31 -110 -11 -28 -26 -84 -34 -123 -7 -40 -25 -99 -38 -130 -13 -32
-29 -83 -34 -113 -6 -30 -22 -80 -36 -110 -14 -30 -26 -66 -26 -78 0 -13 -14
-58 -31 -100 -17 -43 -35 -99 -40 -127 -5 -27 -19 -67 -30 -89 -11 -22 -29
-71 -39 -110 -10 -39 -30 -98 -44 -131 -14 -33 -26 -68 -26 -78 0 -10 -11 -39
-25 -66 -13 -27 -29 -70 -36 -97 -6 -27 -20 -62 -29 -79 -10 -16 -26 -57 -35
-90 -9 -33 -25 -72 -36 -87 -10 -15 -26 -52 -34 -83 -8 -31 -23 -67 -35 -82
-11 -14 -25 -44 -31 -67 -6 -22 -24 -62 -40 -87 -16 -25 -29 -54 -29 -63 0
-25 -19 -57 -52 -88 -15 -14 -28 -36 -28 -48 0 -12 -5 -30 -11 -41 -8 -16 -13
-18 -25 -8 -22 18 -17 68 10 100 16 19 27 48 31 84 4 33 17 70 31 91 13 19 29
56 35 82 7 26 22 65 34 87 12 22 28 63 36 90 7 28 25 74 41 104 15 29 28 62
28 73 0 11 16 55 35 98 19 43 35 86 35 97 0 11 13 49 29 84 16 35 32 80 36 99
3 19 19 67 35 105 16 39 32 88 36 110 4 22 18 64 31 93 13 30 29 77 35 105 6
28 20 72 30 97 11 25 29 78 39 118 10 41 28 94 39 120 11 25 28 80 36 121 9
41 22 87 29 101 7 14 18 52 24 85 7 33 25 98 40 145 16 47 34 113 40 147 6 34
20 81 31 105 10 24 23 71 29 105 8 50 52 151 98 225 10 18 25 -9 25 -45z
m-332 -327 c17 -31 8 -131 -12 -143 -12 -8 -21 -7 -32 2 -20 16 -22 131 -4
149 18 18 36 15 48 -8z m-72 -438 c2 -29 -7 -73 -27 -130 -16 -48 -33 -103
-38 -122 -5 -20 -16 -36 -26 -38 -27 -5 -40 43 -33 124 4 59 12 82 47 143 49
84 72 91 77 23z m392 -336 c0 -7 -7 -19 -15 -26 -16 -13 -20 -3 -9 24 8 20 24
21 24 2z m-43 -130 c-4 -53 -11 -83 -26 -103 -12 -15 -28 -61 -36 -101 -9 -41
-24 -86 -35 -100 -10 -15 -26 -57 -34 -94 -8 -36 -26 -82 -39 -101 -13 -20
-27 -54 -31 -75 -3 -22 -19 -69 -36 -104 -16 -34 -30 -70 -30 -78 0 -8 -16
-46 -35 -84 -19 -39 -35 -78 -35 -88 0 -10 -13 -44 -29 -76 -16 -32 -34 -77
-40 -100 -7 -23 -22 -58 -35 -77 -13 -19 -27 -50 -30 -69 -4 -20 -20 -61 -36
-92 -17 -31 -30 -63 -30 -72 0 -8 -13 -38 -29 -66 -15 -28 -34 -69 -41 -91 -7
-22 -25 -62 -40 -90 -15 -27 -31 -62 -34 -77 -3 -15 -18 -44 -31 -65 -14 -20
-28 -48 -32 -61 -3 -14 -21 -54 -39 -89 -19 -35 -34 -70 -34 -77 0 -7 -9 -21
-20 -31 -10 -9 -27 -40 -36 -69 -9 -28 -27 -63 -40 -78 -12 -15 -28 -44 -35
-65 -6 -21 -23 -51 -36 -67 -13 -16 -27 -42 -30 -58 -3 -15 -16 -38 -29 -51
-13 -12 -31 -43 -39 -68 -9 -28 -25 -51 -39 -59 -13 -7 -31 -30 -40 -53 -13
-34 -18 -38 -31 -27 -21 17 -19 34 9 67 14 16 27 49 31 75 4 26 18 62 31 80
14 18 29 50 35 72 6 22 22 56 35 75 13 20 24 40 24 46 0 10 123 267 185 386
19 37 35 73 35 81 0 8 11 30 25 49 14 19 33 57 41 86 8 28 21 57 29 63 8 7 22
35 30 62 8 27 23 61 33 76 11 15 25 45 32 67 7 22 23 59 35 82 13 23 31 66 40
95 10 29 26 65 36 79 10 14 23 48 30 75 6 27 20 58 30 69 9 11 25 47 35 80 9
33 27 75 39 95 13 19 28 60 34 90 7 30 20 64 31 75 10 11 26 49 35 85 9 35 27
82 40 105 13 22 26 60 30 85 4 24 18 60 31 80 13 20 29 62 35 95 6 35 21 71
35 88 24 28 27 37 38 106 7 42 22 61 49 61 19 0 20 -5 14 -74z m-5569 -1048
c20 -25 24 -94 8 -132 -27 -66 -56 -38 -56 54 0 77 21 111 48 78z m-443 -73
c45 -44 23 -125 -34 -125 -32 0 -41 18 -41 86 0 65 32 83 75 39z m393 -430
c16 -47 9 -96 -17 -119 -17 -15 -19 -15 -32 0 -14 17 -16 135 -3 156 13 20 40
1 52 -37z m-471 5 c16 -32 17 -92 1 -108 -17 -17 -45 -15 -52 4 -8 22 -8 119
1 128 13 13 37 1 50 -24z m-86 -487 c15 -39 16 -183 1 -210 -15 -27 -37 -30
-46 -7 -10 26 -7 204 4 225 15 27 29 24 41 -8z m5017 -75 c32 -32 0 -117 -61
-162 -25 -19 -28 -19 -44 -4 -26 26 -18 71 22 127 37 51 60 62 83 39z m-5087
-599 c4 -13 7 -70 8 -125 1 -79 -2 -104 -14 -114 -12 -10 -18 -10 -31 1 -13
11 -15 32 -12 129 2 63 7 121 12 128 11 19 29 10 37 -19z"/>
<path d="M20150 37779 c-41 -5 -127 -15 -190 -24 -63 -8 -176 -19 -250 -24
-104 -7 -150 -15 -201 -34 -37 -14 -103 -30 -148 -35 -44 -5 -100 -19 -124
-31 -25 -12 -83 -28 -129 -35 -47 -8 -107 -25 -134 -39 -27 -13 -74 -28 -104
-32 -30 -4 -80 -20 -110 -35 -30 -15 -73 -31 -95 -35 -22 -4 -63 -20 -91 -36
-28 -16 -63 -29 -76 -29 -14 0 -43 -12 -64 -26 -21 -15 -60 -33 -86 -40 -26
-8 -60 -26 -76 -39 -17 -14 -37 -25 -45 -25 -8 0 -39 -16 -68 -36 -30 -20 -64
-40 -76 -45 -36 -13 -138 -96 -187 -150 -60 -67 -69 -101 -65 -242 4 -101 7
-119 26 -144 13 -15 29 -41 36 -58 21 -46 36 -54 160 -80 34 -7 107 -78 107
-105 0 -11 16 -37 35 -59 40 -44 45 -79 15 -106 -26 -24 -50 -105 -50 -170 0
-60 29 -112 73 -133 42 -20 146 -34 207 -28 163 18 201 26 253 56 29 16 61 30
71 30 9 0 39 11 66 25 61 31 110 32 136 4 16 -17 19 -36 18 -104 0 -74 -4 -88
-28 -123 -15 -22 -32 -56 -37 -77 -6 -20 -24 -56 -40 -78 -16 -22 -29 -50 -29
-63 0 -12 -11 -35 -24 -51 -30 -37 -46 -67 -46 -91 0 -10 -13 -36 -30 -58 -16
-21 -30 -46 -30 -54 0 -8 -16 -49 -36 -90 -83 -173 -103 -217 -112 -250 -5
-19 -20 -52 -34 -72 -14 -21 -29 -54 -33 -74 -3 -21 -17 -52 -31 -69 -13 -17
-27 -47 -30 -66 -4 -19 -19 -56 -34 -84 -15 -27 -33 -67 -40 -89 -7 -21 -25
-63 -41 -93 -16 -30 -29 -65 -29 -77 0 -11 -14 -41 -30 -65 -17 -24 -30 -55
-30 -69 0 -14 -13 -48 -28 -76 -16 -28 -35 -73 -42 -101 -8 -27 -24 -65 -37
-84 -12 -18 -25 -49 -29 -70 -3 -20 -17 -55 -31 -79 -13 -23 -31 -68 -39 -99
-8 -30 -23 -66 -33 -79 -11 -13 -25 -48 -31 -77 -7 -28 -23 -70 -36 -92 -12
-22 -28 -62 -35 -90 -7 -27 -25 -73 -41 -101 -15 -28 -28 -61 -28 -74 0 -13
-13 -46 -29 -74 -15 -28 -33 -74 -39 -103 -6 -28 -23 -68 -37 -89 -14 -20 -25
-47 -25 -59 0 -30 -19 -85 -41 -116 -10 -15 -24 -51 -30 -80 -6 -30 -22 -72
-34 -94 -13 -22 -28 -65 -35 -95 -7 -30 -21 -67 -31 -81 -11 -15 -26 -56 -35
-90 -9 -35 -27 -82 -40 -104 -12 -22 -26 -60 -30 -85 -4 -25 -20 -69 -35 -98
-15 -29 -31 -73 -35 -98 -4 -26 -17 -65 -30 -88 -13 -23 -28 -66 -35 -96 -6
-30 -22 -73 -35 -96 -13 -23 -29 -66 -35 -97 -5 -31 -23 -82 -39 -113 -17 -31
-30 -71 -30 -89 0 -17 -11 -54 -25 -80 -14 -26 -32 -77 -40 -114 -8 -36 -26
-88 -40 -115 -14 -27 -25 -61 -25 -75 0 -51 -23 -107 -62 -154 -50 -59 -61
-53 -78 41 -7 37 -22 84 -34 106 -11 21 -29 54 -38 72 -10 18 -36 57 -59 86
-22 29 -57 76 -78 103 -41 54 -125 135 -140 135 -15 0 -188 129 -316 236 -66
55 -138 112 -160 126 -22 15 -69 48 -105 73 -36 25 -74 48 -85 51 -11 4 -36
17 -55 30 -19 13 -66 34 -105 48 -38 13 -90 33 -115 42 -38 16 -75 18 -255 18
-203 0 -214 -2 -325 -31 -63 -18 -135 -35 -160 -38 -25 -4 -70 -18 -100 -30
-30 -13 -82 -28 -115 -35 -33 -6 -75 -21 -94 -31 -19 -11 -59 -26 -89 -34 -31
-8 -76 -26 -101 -39 -25 -13 -60 -27 -78 -30 -18 -4 -47 -17 -65 -30 -18 -12
-55 -30 -83 -40 -27 -10 -57 -24 -65 -31 -8 -7 -40 -24 -70 -39 -100 -49 -209
-113 -334 -196 -37 -25 -85 -56 -106 -70 -54 -36 -134 -95 -281 -206 -74 -56
-362 -312 -486 -431 -179 -173 -494 -522 -653 -723 -36 -45 -81 -101 -100
-125 -61 -74 -206 -272 -280 -380 -11 -16 -32 -46 -45 -65 -13 -19 -38 -58
-55 -87 -17 -28 -38 -57 -45 -63 -8 -7 -15 -18 -15 -24 0 -7 -12 -28 -26 -47
-14 -19 -37 -54 -50 -79 -14 -25 -43 -74 -64 -110 -56 -95 -110 -191 -127
-225 -8 -16 -21 -41 -29 -55 -8 -14 -27 -50 -41 -80 -14 -30 -35 -68 -45 -83
-11 -15 -24 -44 -30 -64 -5 -20 -20 -52 -32 -72 -13 -20 -28 -53 -35 -74 -7
-20 -28 -67 -47 -103 -19 -36 -34 -73 -34 -83 0 -9 -11 -32 -25 -51 -14 -18
-28 -50 -31 -69 -4 -20 -17 -56 -29 -81 -12 -25 -30 -72 -40 -105 -9 -33 -25
-73 -35 -90 -10 -16 -26 -60 -34 -98 -9 -37 -25 -86 -36 -108 -12 -22 -25 -64
-31 -94 -5 -30 -19 -74 -29 -99 -11 -24 -29 -89 -40 -144 -11 -55 -29 -119
-39 -143 -11 -24 -22 -71 -26 -104 -8 -70 -30 -172 -49 -230 -8 -22 -17 -80
-21 -130 -4 -49 -18 -148 -32 -220 -32 -171 -46 -480 -38 -815 6 -222 10 -274
35 -400 15 -80 31 -172 35 -205 4 -33 19 -98 35 -145 15 -47 31 -105 35 -130
4 -25 18 -65 30 -90 13 -25 28 -64 34 -86 17 -65 108 -247 186 -373 91 -148
337 -422 520 -580 138 -119 368 -301 381 -301 6 0 90 -59 155 -110 15 -11 35
-23 45 -27 11 -3 32 -17 48 -30 16 -13 51 -36 78 -51 84 -45 103 -57 155 -90
27 -18 54 -32 59 -32 5 0 31 -15 57 -34 26 -19 59 -37 72 -40 14 -3 41 -17 60
-31 20 -13 53 -29 73 -36 20 -6 48 -20 61 -30 13 -11 45 -25 70 -33 25 -7 74
-25 108 -40 92 -38 275 -49 602 -35 217 9 276 15 386 39 72 15 153 31 180 35
28 4 77 17 110 30 33 13 71 26 84 30 42 13 291 149 341 187 14 10 67 51 119
89 239 179 600 528 849 820 142 167 223 264 252 303 82 110 211 266 221 266
20 0 27 -44 32 -195 5 -136 9 -171 31 -235 14 -41 29 -114 34 -162 6 -52 18
-105 31 -132 13 -25 29 -83 36 -129 7 -46 23 -104 35 -129 11 -24 27 -85 34
-136 8 -50 24 -112 36 -137 12 -25 26 -77 31 -115 4 -38 19 -91 33 -119 14
-27 30 -80 36 -117 6 -38 22 -88 35 -110 66 -113 23 -202 -108 -224 -31 -5
-69 -16 -86 -24 -34 -18 -121 -31 -271 -41 -73 -5 -124 -15 -170 -32 -36 -14
-96 -29 -134 -34 -41 -5 -85 -18 -110 -33 -23 -13 -68 -29 -101 -35 -32 -6
-75 -22 -95 -35 -19 -13 -51 -27 -71 -30 -21 -4 -52 -17 -71 -30 -19 -13 -57
-31 -84 -41 -27 -10 -56 -24 -64 -31 -9 -7 -36 -22 -61 -33 -25 -11 -57 -29
-70 -40 -13 -10 -40 -26 -59 -35 -110 -52 -380 -278 -380 -318 0 -5 -13 -26
-29 -46 -28 -35 -61 -116 -61 -148 0 -30 50 -110 92 -147 24 -21 75 -57 113
-81 57 -36 85 -46 147 -56 79 -12 182 -55 210 -88 26 -30 58 -92 58 -112 0
-20 46 -80 62 -80 5 0 24 -10 40 -22 47 -33 155 -37 233 -8 33 12 100 30 148
41 48 10 107 29 130 43 23 13 62 27 87 30 25 4 72 20 105 36 33 16 76 32 96
35 21 3 53 16 72 29 19 13 62 30 94 36 32 6 74 22 93 35 20 12 55 26 78 30 23
4 63 18 89 32 26 13 72 29 102 34 31 6 81 23 111 38 30 16 77 31 103 34 26 4
68 18 92 32 24 14 70 30 103 36 33 5 82 20 109 34 26 14 73 29 104 34 32 5 79
21 105 34 27 13 72 28 99 32 28 4 79 20 115 35 36 16 90 32 120 36 30 4 76 17
101 30 26 13 77 28 114 34 37 6 89 22 116 36 29 14 81 29 124 34 42 5 95 20
123 34 27 13 83 29 125 35 43 6 96 20 119 32 23 12 83 27 134 34 52 8 110 23
135 35 25 13 76 26 122 31 43 5 105 21 139 35 33 14 94 29 137 34 44 5 100 20
133 35 32 14 89 30 130 34 110 13 138 29 138 77 0 52 -280 333 -380 382 -14 6
-36 21 -51 32 -35 29 -130 40 -339 41 -277 0 -552 -17 -661 -40 -122 -26 -287
-41 -462 -41 l-139 0 -26 29 c-38 40 -70 95 -81 139 -32 127 -18 609 24 816
17 86 27 182 35 331 6 120 19 257 30 320 12 62 27 219 35 359 11 178 22 282
39 365 14 65 29 186 35 276 7 111 17 180 31 225 13 41 25 116 31 200 6 91 18
162 34 217 15 48 29 128 34 195 7 78 18 139 36 189 15 45 29 112 34 174 5 60
18 122 30 154 12 30 28 105 36 167 8 68 23 132 36 161 13 28 26 84 31 133 4
47 19 114 33 150 13 36 29 102 35 147 6 46 21 106 34 136 13 29 29 92 35 140
6 49 19 104 32 128 11 23 28 83 36 133 8 50 23 104 33 121 10 17 25 71 33 121
8 50 24 109 36 132 11 23 25 73 31 112 6 39 21 92 34 118 13 26 28 77 34 114
6 37 22 93 36 125 14 32 30 86 35 119 5 34 20 82 32 105 12 24 28 77 35 117 7
41 19 81 27 90 20 24 35 69 42 130 4 29 17 72 30 95 13 23 28 70 35 104 6 34
21 81 35 105 13 24 26 66 30 93 4 28 20 77 35 110 16 33 32 83 36 110 3 28 19
75 34 105 16 30 31 75 35 100 4 25 18 63 30 85 13 22 28 67 35 100 6 33 22 80
35 105 12 25 28 72 35 105 7 33 21 72 31 86 10 14 26 59 35 99 9 41 25 86 36
101 11 15 26 57 34 94 8 37 23 78 33 92 11 13 25 50 32 81 6 31 22 78 35 104
13 26 29 71 35 100 6 29 20 66 31 81 11 15 26 55 34 88 8 34 25 79 38 102 14
23 28 60 31 82 4 22 20 65 35 95 15 30 31 75 35 99 4 24 18 59 30 78 13 19 29
60 35 91 7 31 23 73 36 92 13 20 28 57 32 82 5 25 19 62 31 82 13 20 29 63 37
95 7 33 25 76 39 96 14 21 25 50 25 65 0 16 14 54 30 85 17 32 35 79 41 104 6
25 22 62 35 81 13 20 28 57 32 82 5 25 21 66 35 90 14 24 28 61 32 83 4 22 18
56 32 77 13 20 30 60 37 90 7 29 25 75 39 101 15 27 30 65 33 85 4 21 17 53
30 72 13 19 28 57 34 84 6 27 21 67 34 90 13 22 29 63 35 89 7 27 21 61 32 76
11 15 27 54 35 86 9 33 26 78 39 100 13 22 27 58 31 80 4 22 20 63 35 91 16
28 29 62 29 76 0 14 16 55 35 91 19 36 35 76 35 89 0 13 13 48 29 78 16 30 34
79 40 108 6 29 20 65 31 80 10 15 26 58 35 96 8 37 24 79 35 93 10 13 24 50
30 81 7 31 22 75 35 97 12 22 28 66 35 98 6 31 22 76 35 100 13 23 28 67 33
97 6 30 22 75 35 100 14 25 28 67 32 93 3 27 19 75 35 108 16 33 32 84 35 112
4 29 18 73 31 99 13 25 29 79 35 120 6 40 22 93 35 119 16 30 28 76 34 131 6
47 21 114 34 149 17 47 25 94 30 178 3 63 11 121 18 130 41 55 100 106 148
127 30 14 62 32 72 41 9 8 38 19 63 24 26 5 58 17 73 27 34 24 87 42 122 42
15 0 49 12 76 26 27 14 79 32 115 40 36 7 90 25 120 38 30 13 83 27 119 31 36
4 87 18 115 32 33 16 80 28 140 35 53 6 114 20 150 35 39 17 90 28 150 33 50
4 128 19 173 34 46 14 118 28 164 31 46 3 127 10 180 17 78 9 100 9 113 -2 24
-20 18 -66 -14 -102 -15 -18 -32 -44 -36 -58 -4 -13 -23 -47 -41 -73 -19 -27
-34 -57 -34 -67 0 -9 -13 -34 -29 -54 -16 -20 -33 -51 -36 -68 -4 -17 -20 -49
-36 -71 -16 -22 -29 -47 -29 -56 0 -16 -9 -33 -47 -92 -13 -19 -23 -43 -23
-55 0 -12 -12 -39 -27 -60 -14 -21 -32 -58 -39 -81 -7 -23 -24 -59 -38 -80
-14 -21 -26 -45 -26 -55 0 -21 -18 -64 -41 -98 -9 -14 -24 -48 -32 -77 -9 -29
-25 -65 -37 -81 -12 -16 -26 -48 -31 -71 -5 -23 -20 -59 -33 -79 -14 -20 -30
-57 -36 -81 -7 -25 -25 -69 -41 -99 -16 -30 -29 -64 -29 -76 0 -12 -11 -37
-24 -57 -14 -20 -31 -61 -39 -92 -8 -31 -24 -69 -36 -85 -11 -16 -27 -56 -34
-88 -8 -33 -26 -77 -41 -98 -14 -21 -26 -51 -26 -66 0 -15 -13 -51 -28 -81
-16 -30 -34 -76 -41 -103 -7 -27 -21 -61 -31 -76 -10 -14 -26 -57 -34 -94 -9
-38 -25 -79 -35 -92 -11 -13 -25 -48 -31 -77 -7 -28 -23 -71 -36 -94 -14 -24
-30 -68 -36 -100 -6 -32 -22 -72 -34 -90 -12 -18 -27 -62 -34 -98 -7 -36 -21
-76 -31 -89 -10 -13 -26 -53 -34 -89 -8 -36 -26 -87 -40 -114 -14 -26 -29 -69
-34 -95 -4 -25 -17 -62 -29 -81 -11 -19 -26 -61 -33 -93 -7 -33 -22 -77 -35
-99 -12 -22 -28 -67 -34 -100 -7 -33 -21 -75 -32 -93 -12 -19 -27 -64 -35
-100 -7 -36 -23 -81 -35 -99 -11 -19 -27 -66 -34 -105 -8 -39 -20 -78 -27 -87
-18 -22 -34 -67 -43 -121 -3 -25 -19 -67 -34 -95 -15 -27 -31 -74 -34 -104 -4
-30 -18 -73 -32 -97 -14 -23 -29 -69 -34 -102 -6 -33 -21 -79 -34 -103 -14
-24 -27 -66 -31 -94 -4 -27 -19 -75 -35 -105 -15 -30 -31 -79 -35 -109 -4 -29
-18 -74 -31 -100 -13 -25 -29 -75 -35 -111 -7 -36 -22 -86 -35 -111 -13 -26
-28 -75 -33 -109 -6 -35 -22 -84 -35 -111 -14 -26 -30 -77 -36 -113 -6 -36
-21 -85 -34 -110 -13 -24 -27 -70 -31 -102 -4 -32 -18 -80 -31 -106 -14 -27
-31 -83 -38 -126 -8 -43 -24 -98 -36 -122 -12 -24 -26 -73 -31 -109 -5 -36
-20 -88 -34 -116 -13 -27 -29 -79 -34 -115 -5 -36 -21 -94 -35 -128 -15 -35
-30 -93 -35 -131 -5 -37 -19 -87 -31 -111 -12 -24 -28 -81 -36 -127 -7 -47
-24 -108 -38 -136 -14 -31 -27 -80 -31 -122 -3 -42 -16 -92 -31 -125 -14 -31
-29 -88 -34 -130 -9 -81 -13 -94 -41 -155 -10 -22 -22 -76 -27 -121 -5 -44
-19 -102 -31 -130 -13 -28 -29 -96 -37 -157 -9 -64 -23 -125 -35 -149 -13 -24
-24 -77 -31 -136 -7 -62 -19 -117 -35 -152 -17 -38 -28 -87 -34 -159 -6 -62
-20 -131 -35 -171 -14 -40 -28 -110 -34 -167 -5 -59 -19 -124 -33 -163 -17
-44 -28 -104 -36 -185 -7 -79 -19 -146 -36 -193 -14 -39 -25 -92 -25 -116 0
-70 -19 -193 -45 -286 -14 -52 -26 -128 -29 -195 -4 -71 -15 -143 -31 -200
-18 -64 -28 -136 -35 -249 -6 -87 -12 -168 -15 -180 -2 -12 -13 -60 -25 -108
-13 -59 -23 -151 -30 -280 -6 -122 -18 -241 -34 -323 -18 -97 -25 -183 -30
-340 -4 -115 -16 -304 -27 -420 -10 -115 -24 -257 -29 -314 -14 -147 -13
-1967 1 -2085 6 -50 17 -124 25 -163 9 -40 21 -146 29 -235 10 -122 18 -175
34 -209 11 -26 26 -82 31 -125 6 -45 22 -101 36 -129 13 -27 28 -73 33 -102 4
-29 19 -69 33 -90 13 -21 30 -60 37 -87 7 -27 20 -61 30 -75 23 -35 41 -78 41
-100 0 -10 13 -36 28 -57 15 -21 33 -57 40 -79 6 -22 23 -56 37 -75 14 -18 25
-42 25 -51 0 -9 15 -39 34 -66 18 -26 37 -59 41 -72 8 -27 76 -137 101 -165 9
-10 22 -29 29 -42 43 -83 196 -176 317 -193 41 -6 99 -22 130 -36 74 -34 224
-46 281 -22 70 30 101 153 56 226 -12 19 -43 54 -69 78 -27 24 -52 54 -56 66
-3 12 -20 53 -36 91 l-30 68 1 267 c0 240 3 287 30 481 20 147 31 275 35 405
4 148 11 218 31 320 14 72 30 197 35 279 6 101 18 181 35 247 15 57 29 150 34
226 6 80 17 152 31 193 11 36 27 126 34 201 8 80 24 168 39 215 15 48 27 118
31 178 5 68 16 126 36 188 18 53 30 112 30 142 0 70 18 173 36 207 8 16 19 66
24 111 16 128 30 199 47 231 8 16 21 82 28 146 14 118 23 160 45 201 7 12 18
73 25 134 8 66 22 130 35 158 11 27 25 87 31 135 12 112 17 136 39 187 10 22
24 87 30 143 6 61 20 125 35 161 14 36 28 97 34 154 6 61 17 111 31 137 11 24
27 86 35 144 8 57 24 124 35 150 12 26 26 88 31 137 6 54 20 112 34 145 15 33
29 91 35 143 5 50 21 115 36 152 15 37 29 98 34 146 5 46 18 105 30 131 12 26
28 90 36 141 8 51 24 112 35 134 12 23 27 82 34 132 7 51 22 111 34 134 12 23
26 79 33 125 6 45 24 114 39 154 16 39 29 89 29 110 0 45 15 102 42 161 10 24
23 76 27 115 5 41 18 92 31 116 12 25 29 84 36 133 8 49 24 106 35 127 11 21
26 79 33 129 8 55 22 105 35 125 12 20 25 67 31 111 6 42 22 98 35 124 13 26
28 81 34 124 6 43 21 96 34 121 13 24 27 73 31 107 4 35 19 86 32 113 14 27
32 85 39 129 8 44 24 96 35 115 11 19 25 65 30 102 5 38 21 91 35 118 14 27
30 77 35 110 4 33 19 82 33 109 13 27 28 74 32 104 4 30 18 77 32 103 13 27
31 83 39 125 8 41 23 90 35 108 11 18 24 61 30 96 5 35 21 84 35 111 13 26 27
68 31 93 14 104 69 108 98 7 9 -32 23 -70 31 -85 8 -16 21 -73 28 -127 8 -55
24 -121 35 -147 12 -26 28 -91 35 -143 8 -53 24 -118 37 -146 13 -30 25 -83
30 -133 4 -49 15 -98 27 -120 21 -41 42 -126 42 -173 0 -17 13 -64 29 -104 17
-41 33 -102 36 -137 4 -35 18 -88 32 -118 13 -30 29 -91 35 -135 6 -44 21
-102 35 -129 13 -27 28 -80 33 -119 6 -39 21 -94 35 -122 13 -28 29 -82 35
-121 7 -38 23 -90 35 -115 13 -26 28 -76 33 -112 6 -36 22 -85 35 -109 14 -24
29 -70 35 -103 6 -33 22 -83 36 -109 14 -27 26 -63 26 -80 1 -38 23 -101 43
-124 9 -9 18 -35 22 -57 10 -60 26 -107 45 -135 10 -14 23 -52 29 -85 6 -32
22 -75 34 -95 13 -19 27 -53 30 -75 4 -22 20 -66 37 -97 16 -32 33 -76 36 -99
4 -22 17 -56 30 -75 13 -19 29 -56 36 -82 6 -26 24 -70 40 -98 15 -28 28 -58
28 -66 0 -9 15 -45 33 -80 19 -35 37 -78 40 -96 4 -19 18 -47 31 -62 13 -16
26 -46 30 -68 3 -22 17 -53 30 -69 12 -15 31 -53 41 -83 10 -30 24 -62 32 -71
8 -9 23 -41 34 -70 12 -30 27 -61 34 -69 7 -8 23 -40 35 -70 12 -30 28 -62 35
-70 7 -8 25 -40 40 -70 50 -104 80 -158 98 -178 10 -11 22 -36 28 -56 6 -20
23 -51 38 -69 15 -17 31 -44 34 -58 4 -14 20 -43 36 -63 17 -21 33 -47 37 -59
4 -12 17 -35 30 -50 13 -16 24 -35 24 -42 0 -8 13 -29 29 -47 15 -18 38 -51
50 -73 33 -61 85 -142 106 -166 11 -11 28 -35 40 -54 34 -56 73 -111 88 -126
7 -8 26 -33 41 -57 14 -23 30 -42 35 -42 6 0 12 -9 16 -20 6 -19 19 -37 115
-155 22 -27 56 -70 76 -95 106 -134 239 -273 313 -325 86 -62 100 -77 137
-148 l38 -72 7 -555 c4 -305 12 -586 17 -625 5 -38 15 -106 21 -150 6 -44 18
-140 26 -213 10 -97 19 -140 33 -160 11 -15 29 -47 41 -71 30 -57 157 -178
227 -214 17 -9 36 -22 43 -31 7 -8 29 -20 49 -27 20 -6 57 -24 82 -39 25 -15
63 -31 85 -35 22 -3 75 -18 118 -32 l79 -26 26 20 c41 30 70 80 78 131 4 26
20 77 35 114 16 37 33 98 39 136 5 39 19 86 30 106 12 20 27 73 35 124 7 49
23 108 34 131 12 23 26 75 31 116 12 94 19 122 42 166 11 21 22 74 27 131 5
55 20 125 34 164 14 39 30 115 36 173 6 57 22 134 35 170 13 36 26 98 30 136
4 40 18 93 32 125 14 30 29 88 35 130 5 41 21 100 34 131 14 30 29 88 35 128
6 40 21 96 35 125 14 30 29 84 34 122 5 38 20 94 34 124 14 30 30 89 37 129 6
41 19 89 30 106 11 17 24 65 30 106 6 40 22 100 36 132 14 32 30 90 36 128 5
39 20 90 32 114 14 26 26 71 30 112 9 82 23 133 39 133 15 0 74 -71 86 -103 6
-14 15 -52 21 -85 6 -33 21 -86 34 -119 14 -32 30 -87 36 -123 6 -35 20 -80
30 -100 10 -19 24 -65 31 -100 6 -36 24 -97 40 -135 15 -39 30 -93 34 -120 4
-28 18 -73 30 -101 12 -28 27 -80 34 -116 6 -36 20 -87 32 -112 11 -26 27 -79
35 -119 9 -40 24 -91 34 -115 11 -24 27 -78 35 -120 9 -42 26 -104 39 -137 13
-33 27 -82 31 -109 4 -27 17 -73 30 -101 12 -28 28 -83 34 -121 7 -38 21 -86
31 -106 10 -20 26 -72 35 -115 9 -43 26 -105 39 -138 13 -33 29 -91 35 -129 7
-38 21 -85 31 -106 10 -20 25 -72 34 -116 8 -44 24 -100 35 -126 11 -26 25
-76 31 -110 6 -35 20 -83 31 -107 10 -24 19 -49 19 -56 0 -7 9 -24 21 -39 l20
-26 1230 0 c844 0 1237 3 1250 11 26 13 66 106 85 192 7 37 23 88 34 113 12
24 26 70 31 102 6 31 21 82 34 112 12 30 28 82 35 115 7 33 23 84 36 113 13
29 26 69 30 90 9 56 32 133 44 147 5 6 17 47 26 91 9 43 25 96 36 117 10 21
23 64 29 95 5 31 21 84 34 117 14 33 31 90 40 127 8 37 26 95 40 128 14 32 25
71 25 86 0 14 13 58 29 97 15 40 34 97 40 127 6 30 22 82 35 115 13 33 27 80
31 105 4 25 18 68 30 97 13 28 29 78 35 110 7 32 25 91 41 131 16 41 29 85 29
99 0 13 13 57 29 97 16 39 34 98 41 130 7 33 21 80 32 105 10 25 25 73 33 106
7 33 27 98 44 145 17 47 31 93 31 103 0 10 13 53 29 95 16 42 34 102 41 132 7
30 19 65 27 78 8 13 22 60 32 105 11 45 28 102 39 127 11 25 23 65 27 90 4 25
20 76 35 115 16 38 31 88 35 110 4 22 19 74 35 115 15 41 34 100 40 130 7 30
21 71 31 91 9 19 23 64 29 99 6 35 20 81 31 102 10 20 28 72 38 115 11 43 29
103 40 133 11 30 20 67 21 81 0 15 8 37 18 49 15 19 20 20 30 7 21 -25 71
-182 83 -259 6 -40 19 -91 28 -113 10 -23 24 -72 30 -110 7 -39 26 -113 42
-165 15 -52 31 -117 35 -145 4 -27 18 -81 31 -118 13 -38 30 -106 38 -152 8
-47 24 -107 35 -135 11 -28 25 -82 31 -121 6 -39 21 -101 34 -138 14 -38 29
-98 35 -135 6 -37 19 -89 29 -116 10 -27 24 -79 31 -117 7 -37 25 -108 40
-158 16 -49 31 -112 35 -140 4 -27 17 -81 30 -120 13 -38 29 -101 36 -140 6
-38 22 -100 35 -136 13 -36 28 -95 33 -131 5 -36 20 -96 34 -134 14 -38 30
-100 36 -139 6 -38 22 -101 35 -140 13 -38 27 -95 30 -125 4 -30 18 -86 31
-125 13 -38 31 -108 39 -155 8 -47 24 -112 36 -145 11 -33 25 -91 31 -129 5
-39 20 -99 33 -135 13 -37 29 -99 35 -140 7 -41 22 -107 35 -145 13 -39 29
-104 35 -143 6 -40 20 -96 31 -125 10 -29 26 -91 34 -138 8 -47 23 -110 35
-140 11 -30 25 -86 31 -125 16 -104 59 -233 84 -250 18 -13 189 -15 1278 -15
1409 0 1281 -8 1294 78 3 26 17 74 30 107 13 33 31 93 39 134 8 41 25 95 36
120 11 25 25 72 30 105 6 32 21 84 34 115 13 31 28 84 34 117 6 34 22 88 35
121 14 32 30 88 36 123 6 36 21 84 31 108 11 23 25 68 30 100 6 31 22 85 35
121 14 36 31 95 39 133 7 37 23 88 34 114 12 25 26 76 32 112 7 36 22 89 34
117 13 28 26 74 30 101 4 27 18 78 32 113 14 34 31 92 39 128 7 36 24 92 38
126 13 34 27 83 30 108 4 26 20 81 36 124 17 42 30 87 30 99 0 13 9 49 21 82
12 32 30 95 41 139 11 44 31 107 43 140 13 33 26 78 30 100 8 44 31 118 45
145 5 9 16 52 25 94 9 43 25 94 36 115 10 20 24 64 29 97 6 32 21 86 34 119
13 33 29 87 36 120 7 33 23 85 35 115 13 30 29 84 35 120 6 35 20 81 31 102
11 22 24 65 30 96 5 31 21 84 34 117 13 33 31 91 40 129 8 38 24 89 35 113 11
24 22 61 25 81 9 52 24 100 45 147 10 22 23 67 30 100 6 33 22 85 35 115 13
30 26 75 30 100 3 25 19 77 35 115 16 39 32 88 36 110 4 22 19 69 34 105 15
36 31 82 34 104 4 21 18 62 31 91 12 29 28 76 34 104 6 29 20 71 31 94 12 23
30 78 40 121 11 44 27 90 35 102 7 12 23 58 34 102 11 44 29 97 40 118 12 21
21 50 21 64 0 14 12 52 26 85 15 33 33 89 41 125 8 35 25 86 39 113 13 27 27
67 30 90 4 23 19 71 35 107 15 36 33 90 39 121 6 31 19 72 30 92 11 19 26 65
35 101 8 37 24 84 35 106 11 22 25 63 31 92 6 29 22 74 35 100 12 26 26 65 29
85 8 45 34 120 51 148 7 11 16 40 20 65 4 25 20 74 35 110 15 36 31 83 35 105
4 22 19 69 34 105 15 36 31 83 35 105 4 22 17 63 30 90 13 28 29 73 35 100 6
28 22 75 35 105 13 30 31 83 39 117 9 35 24 80 35 101 11 21 23 56 27 77 4 22
19 69 34 105 15 36 31 83 35 104 3 22 17 61 30 88 13 27 29 74 35 103 6 29 22
75 34 102 13 26 28 72 35 101 6 29 20 70 31 92 11 22 26 65 34 97 8 32 25 83
39 113 14 30 28 75 32 100 4 25 18 66 31 92 13 26 29 71 35 100 6 29 22 73 34
98 12 25 28 70 35 100 7 30 21 70 31 88 11 18 26 63 35 100 9 37 25 82 36 101
10 18 26 63 34 100 8 36 24 81 35 100 11 18 25 56 31 85 5 28 21 74 33 101 13
28 30 74 39 102 13 47 13 54 0 68 -9 8 -23 15 -32 15 -394 4 -2394 -1 -2405
-6 -9 -3 -22 -25 -28 -48 -35 -135 -49 -202 -63 -291 -8 -56 -22 -121 -30
-146 -9 -25 -23 -96 -31 -158 -9 -61 -25 -141 -36 -176 -11 -35 -24 -101 -30
-146 -10 -86 -33 -191 -49 -234 -5 -13 -14 -63 -20 -110 -6 -48 -21 -121 -35
-163 -13 -42 -27 -104 -30 -137 -9 -76 -29 -165 -44 -192 -6 -12 -17 -65 -26
-120 -8 -54 -24 -125 -35 -158 -11 -33 -25 -91 -30 -129 -6 -37 -21 -101 -35
-142 -14 -41 -30 -106 -36 -145 -6 -40 -22 -100 -35 -134 -12 -35 -26 -87 -30
-116 -3 -30 -19 -94 -35 -144 -15 -49 -33 -119 -39 -155 -6 -36 -19 -88 -30
-115 -10 -28 -25 -91 -34 -140 -10 -50 -26 -114 -36 -142 -11 -29 -24 -82 -30
-119 -6 -37 -21 -97 -35 -135 -13 -37 -28 -100 -34 -139 -6 -39 -22 -102 -35
-140 -13 -38 -29 -100 -35 -139 -6 -39 -20 -92 -30 -119 -10 -26 -26 -87 -35
-135 -9 -49 -28 -123 -41 -165 -13 -42 -29 -108 -36 -147 -6 -38 -17 -81 -24
-95 -7 -14 -18 -54 -24 -90 -29 -163 -31 -170 -57 -176 -13 -3 -30 -1 -38 5
-16 13 -32 94 -42 206 -3 44 -12 98 -19 120 -23 73 -34 131 -45 231 -6 55 -22
140 -35 189 -13 50 -29 137 -34 194 -6 57 -20 134 -31 170 -10 36 -26 122 -35
191 -9 69 -25 157 -35 195 -11 39 -24 113 -30 165 -12 98 -17 125 -44 223 -9
31 -22 108 -31 170 -8 61 -23 144 -34 183 -11 39 -25 116 -31 170 -6 55 -22
140 -35 191 -13 51 -29 134 -34 185 -5 51 -19 129 -30 173 -12 44 -26 125 -32
180 -6 55 -22 149 -36 209 -13 61 -31 164 -39 230 -8 67 -21 146 -29 176 -8
30 -20 93 -26 140 -15 110 -35 228 -53 310 -8 36 -19 109 -25 164 -6 54 -20
131 -30 171 -11 39 -24 116 -31 171 -19 156 -50 301 -70 319 -15 14 -237 15
-2205 15 -1626 0 -2191 -3 -2201 -11 -20 -16 -17 -41 11 -104 13 -31 31 -91
40 -133 9 -42 24 -98 35 -124 11 -26 27 -81 35 -122 8 -42 23 -97 34 -122 12
-25 26 -76 32 -113 6 -36 20 -85 31 -109 10 -24 28 -83 38 -132 10 -49 26
-103 35 -120 9 -17 23 -66 31 -108 8 -42 23 -98 34 -124 11 -26 27 -81 35
-122 8 -42 23 -97 34 -122 12 -25 26 -76 32 -113 7 -36 23 -95 36 -130 13 -35
30 -96 38 -135 7 -39 22 -94 34 -123 11 -28 26 -82 32 -120 7 -37 21 -88 31
-113 11 -25 26 -80 34 -123 7 -42 20 -90 28 -105 7 -15 21 -61 30 -102 9 -41
30 -118 45 -170 71 -236 75 -272 47 -375 -9 -33 -21 -82 -27 -110 -7 -27 -18
-59 -25 -70 -7 -11 -18 -51 -25 -90 -6 -38 -22 -99 -35 -135 -14 -36 -31 -101
-40 -144 -8 -44 -24 -96 -34 -116 -10 -21 -24 -68 -31 -106 -6 -38 -22 -92
-34 -120 -13 -29 -26 -71 -30 -95 -9 -60 -26 -120 -41 -144 -6 -11 -19 -55
-29 -98 -9 -43 -25 -97 -36 -121 -10 -24 -23 -67 -30 -97 -6 -30 -22 -84 -36
-122 -14 -37 -31 -91 -38 -120 -8 -28 -28 -94 -46 -144 -30 -89 -47 -110 -66
-80 -15 25 -71 210 -78 259 -4 28 -18 82 -31 120 -14 38 -31 102 -38 141 -8
40 -24 96 -35 125 -12 29 -26 84 -32 122 -6 39 -22 98 -35 133 -13 34 -27 87
-31 117 -3 30 -19 89 -34 131 -15 43 -31 101 -35 130 -4 30 -19 88 -34 129
-15 41 -30 99 -34 129 -4 29 -18 82 -31 118 -14 36 -30 95 -35 132 -6 36 -22
95 -35 131 -13 36 -29 93 -34 127 -5 34 -21 94 -35 132 -14 38 -28 94 -32 123
-4 29 -18 82 -31 118 -13 36 -31 102 -39 147 -8 45 -23 101 -34 125 -10 24
-24 77 -31 118 -6 41 -22 107 -35 148 -13 40 -29 106 -34 145 -6 40 -21 104
-34 143 -13 39 -27 97 -31 130 -5 32 -20 98 -36 146 -15 47 -30 112 -34 145
-4 32 -25 112 -47 178 -46 137 -47 182 -5 236 14 19 29 48 32 64 4 17 18 49
31 71 13 23 31 63 40 90 9 27 25 60 35 73 11 13 25 45 33 70 7 26 25 64 40 85
14 21 28 54 32 75 4 20 14 45 24 56 26 29 40 61 40 87 0 13 11 40 25 58 14 19
31 53 37 75 7 22 22 56 35 75 12 20 30 59 38 86 8 28 23 62 34 75 10 14 26 48
35 77 8 29 24 64 36 79 11 14 26 47 34 72 7 26 25 64 40 85 14 21 26 48 26 59
0 11 13 41 29 66 16 25 32 62 36 81 4 19 18 50 31 70 13 20 31 60 40 90 9 30
24 65 34 77 9 12 23 44 30 70 7 26 19 55 25 63 22 27 45 78 45 102 0 13 14 43
30 67 17 24 30 52 30 62 0 9 15 46 34 81 18 35 37 79 41 98 4 19 20 55 36 79
16 24 31 60 35 80 3 20 17 52 30 71 12 19 28 58 34 85 6 28 22 66 35 85 14 20
29 56 33 82 5 25 19 60 31 77 13 18 29 60 37 94 8 34 23 74 34 89 11 15 26 54
34 87 8 34 23 75 34 93 11 18 26 60 33 93 7 33 22 78 35 100 12 22 27 73 33
113 6 41 23 101 37 135 23 53 27 81 32 194 l5 131 -54 58 c-63 67 -194 174
-213 174 -8 0 -19 7 -27 16 -21 25 -72 47 -107 46 -38 -2 -80 16 -131 53 -31
23 -40 25 -97 19 -50 -5 -69 -3 -89 10 -28 18 -33 47 -10 66 24 20 18 34 -32
77 -46 40 -106 141 -129 218 -7 23 -19 33 -59 47 -28 10 -63 18 -80 18 -52 0
-204 -46 -228 -69 -13 -11 -28 -21 -34 -21 -6 0 -26 -12 -44 -27 -43 -36 -209
-230 -209 -244 0 -6 -12 -26 -27 -43 -42 -49 -96 -127 -111 -161 -7 -16 -16
-32 -20 -35 -12 -8 -100 -144 -108 -166 -4 -10 -20 -35 -35 -55 -15 -19 -33
-48 -40 -65 -7 -16 -24 -42 -36 -57 -13 -16 -23 -34 -23 -41 0 -7 -16 -35 -35
-62 -19 -27 -35 -56 -35 -64 0 -8 -16 -35 -35 -59 -19 -24 -35 -52 -35 -61 0
-10 -13 -34 -29 -54 -17 -21 -35 -54 -42 -74 -6 -20 -20 -46 -29 -57 -10 -11
-30 -42 -44 -70 -54 -106 -89 -173 -126 -240 -39 -71 -59 -110 -79 -155 -6
-14 -23 -40 -36 -59 -14 -19 -25 -42 -25 -53 0 -10 -13 -36 -29 -59 -16 -22
-33 -54 -37 -72 -3 -17 -19 -47 -34 -67 -15 -19 -31 -48 -34 -64 -4 -16 -20
-48 -37 -72 -16 -23 -29 -51 -29 -61 0 -10 -16 -40 -35 -67 -19 -27 -35 -60
-35 -72 0 -12 -11 -35 -24 -51 -30 -37 -46 -67 -46 -90 0 -11 -11 -34 -25 -53
-14 -19 -30 -52 -36 -73 -6 -22 -24 -57 -40 -79 -16 -23 -29 -51 -29 -63 0
-11 -13 -42 -29 -67 -16 -25 -32 -56 -36 -69 -4 -13 -23 -53 -41 -88 -19 -35
-34 -69 -34 -76 0 -7 -11 -28 -24 -47 -13 -19 -31 -59 -41 -88 -10 -29 -28
-68 -41 -87 -13 -19 -26 -51 -30 -72 -4 -20 -17 -49 -30 -64 -13 -15 -26 -44
-30 -65 -6 -35 -52 -118 -81 -148 -12 -12 -266 -14 -1681 -14 -1862 1 -1718 6
-1676 -68 12 -20 24 -55 28 -77 5 -22 21 -68 37 -102 16 -34 29 -72 29 -85 0
-13 13 -50 29 -84 16 -33 34 -84 40 -113 6 -28 22 -73 35 -99 13 -26 29 -71
35 -100 6 -29 22 -74 35 -100 13 -27 28 -66 32 -88 3 -21 19 -66 34 -100 15
-33 30 -78 34 -99 4 -21 19 -60 32 -87 13 -26 29 -71 35 -99 6 -28 24 -79 40
-115 16 -35 29 -74 29 -87 0 -13 11 -44 24 -69 13 -24 31 -75 41 -114 9 -38
25 -82 35 -99 9 -16 25 -61 34 -99 9 -38 25 -85 36 -105 10 -21 26 -66 35
-101 9 -35 25 -80 34 -99 10 -20 24 -61 31 -91 7 -30 22 -73 33 -95 11 -22 26
-67 34 -99 7 -32 24 -80 37 -106 13 -26 27 -67 31 -91 4 -24 18 -66 32 -94 13
-27 28 -70 34 -95 5 -25 23 -77 39 -117 17 -39 30 -79 30 -87 0 -9 16 -54 35
-100 19 -47 35 -94 35 -106 0 -12 13 -52 29 -88 16 -37 33 -85 36 -107 4 -22
20 -67 35 -100 15 -33 30 -80 34 -103 4 -24 16 -61 26 -83 11 -21 28 -67 36
-102 9 -34 27 -85 40 -113 13 -28 28 -74 34 -102 5 -28 19 -70 30 -92 11 -22
27 -70 36 -107 8 -38 22 -78 30 -91 8 -13 24 -57 35 -100 10 -42 28 -95 39
-118 12 -23 25 -66 30 -97 5 -30 22 -82 39 -116 36 -70 38 -100 11 -160 -11
-23 -25 -73 -30 -110 -6 -36 -22 -90 -36 -120 -13 -30 -29 -86 -34 -123 -6
-38 -21 -90 -34 -116 -13 -26 -27 -74 -31 -107 -4 -33 -20 -89 -35 -125 -15
-36 -31 -94 -35 -129 -4 -36 -20 -94 -35 -130 -15 -36 -30 -96 -34 -133 -4
-41 -16 -87 -31 -117 -16 -30 -29 -82 -36 -132 -5 -45 -19 -100 -31 -122 -11
-22 -26 -81 -34 -131 -8 -50 -25 -116 -38 -146 -13 -30 -29 -92 -35 -137 -6
-44 -20 -99 -31 -121 -11 -21 -27 -82 -35 -135 -8 -52 -24 -113 -36 -136 -11
-22 -25 -73 -30 -113 -10 -82 -14 -96 -41 -156 -10 -24 -23 -76 -27 -117 -10
-83 -15 -95 -41 -95 -22 0 -110 99 -110 124 0 20 -35 92 -50 101 -5 3 -14 23
-20 45 -6 21 -21 52 -33 67 -13 15 -29 48 -36 73 -7 25 -24 59 -37 77 -13 17
-24 38 -24 45 0 7 -17 47 -38 88 -22 41 -42 88 -46 104 -4 17 -16 43 -28 58
-11 16 -26 51 -33 78 -7 27 -23 63 -34 79 -12 17 -28 55 -36 86 -8 31 -24 68
-35 83 -11 15 -24 48 -28 74 -5 25 -20 66 -34 90 -14 23 -31 67 -37 96 -6 30
-22 72 -35 95 -13 23 -27 62 -30 87 -4 25 -18 64 -32 88 -14 23 -30 70 -35
103 -5 34 -21 84 -35 111 -14 28 -30 77 -35 110 -5 33 -20 81 -33 107 -13 25
-28 76 -34 114 -6 37 -22 92 -36 121 -14 30 -28 80 -32 112 -4 33 -19 88 -34
124 -15 36 -30 95 -33 132 -3 37 -18 94 -33 130 -17 39 -30 94 -35 143 -4 47
-18 106 -33 142 -17 40 -30 98 -36 159 -6 53 -19 116 -29 139 -23 53 -28 76
-41 192 -6 51 -19 116 -29 145 -26 71 -29 89 -37 193 -3 50 -17 123 -31 165
-15 48 -28 118 -34 195 -6 72 -20 155 -35 207 -17 59 -28 129 -34 220 -5 83
-18 169 -34 230 -17 67 -28 146 -35 260 -7 101 -18 191 -30 236 -21 75 -41
258 -41 374 0 36 -11 123 -25 192 -17 88 -29 201 -40 373 -8 137 -24 307 -35
378 -13 80 -24 226 -30 380 -7 182 -17 292 -36 405 -15 92 -27 218 -31 310 -4
111 -13 196 -34 300 -15 80 -32 204 -38 275 -7 101 -14 141 -32 180 -22 47
-23 62 -24 250 0 186 2 204 22 252 13 28 28 87 34 130 6 43 24 107 39 143 16
37 30 95 34 134 4 38 18 96 32 129 17 39 29 93 34 149 5 49 20 123 33 166 38
118 63 445 47 625 -7 72 -18 143 -25 158 -20 37 -138 145 -169 153 -14 3 -42
17 -62 31 -38 26 -57 30 -166 40 -69 7 -118 32 -118 60 0 26 -39 44 -73 34
-45 -13 -108 28 -194 126 -91 104 -90 103 -175 125 -183 46 -235 63 -268 85
-19 13 -68 31 -107 39 -40 9 -101 25 -135 37 -53 18 -99 23 -278 30 -196 7
-458 24 -760 49 -139 12 -1814 11 -1920 -1z m3694 -775 c25 -24 21 -105 -6
-139 -13 -16 -32 -47 -43 -69 -24 -50 -66 -62 -85 -25 -20 37 -7 113 26 152
16 19 37 48 46 66 19 34 38 39 62 15z m151 -300 c8 -56 -2 -123 -22 -146 -21
-24 -42 -87 -43 -129 0 -20 -13 -60 -29 -90 -16 -30 -32 -79 -36 -109 -3 -30
-17 -76 -30 -101 -13 -26 -31 -76 -39 -112 -8 -36 -27 -82 -41 -102 -14 -21
-25 -52 -25 -69 0 -18 -13 -52 -29 -77 -15 -25 -34 -70 -41 -100 -7 -29 -21
-63 -31 -74 -21 -24 -39 -68 -39 -99 0 -12 -11 -33 -24 -45 -13 -12 -31 -40
-41 -61 -10 -21 -24 -41 -32 -44 -23 -9 -50 11 -56 42 -7 37 1 68 29 112 12
19 26 58 29 85 4 28 18 73 33 100 14 28 31 78 38 113 8 34 23 75 34 90 12 16
27 58 35 95 8 37 23 80 34 96 12 16 27 55 35 87 7 33 23 75 34 94 12 19 26 60
33 90 6 30 22 67 34 82 13 16 27 52 33 88 7 39 20 72 36 90 13 17 30 55 36 85
19 90 72 96 85 9z m-3875 -361 c0 -15 -9 -36 -19 -47 -12 -12 -24 -47 -30 -83
-5 -34 -21 -79 -34 -100 -14 -21 -30 -63 -37 -93 -7 -30 -21 -64 -31 -75 -10
-11 -25 -46 -33 -78 -8 -32 -24 -70 -34 -85 -11 -15 -27 -55 -35 -88 -9 -34
-27 -78 -41 -98 -14 -21 -28 -57 -32 -82 -3 -24 -10 -47 -15 -50 -14 -8 -45
-75 -52 -111 -4 -18 -17 -50 -30 -70 -14 -21 -30 -60 -37 -88 -7 -27 -20 -59
-30 -70 -21 -26 -40 -71 -40 -95 0 -11 -11 -36 -25 -56 -14 -21 -28 -49 -31
-63 -3 -14 -20 -57 -39 -96 -19 -38 -37 -83 -41 -100 -3 -16 -17 -46 -30 -65
-12 -19 -27 -54 -33 -78 -5 -24 -20 -60 -34 -80 -14 -20 -28 -53 -32 -72 -4
-19 -20 -57 -35 -85 -15 -27 -31 -66 -35 -85 -4 -19 -17 -51 -30 -70 -13 -19
-30 -57 -37 -85 -7 -27 -20 -61 -30 -74 -10 -13 -26 -49 -34 -80 -9 -31 -27
-74 -39 -96 -13 -22 -28 -59 -35 -83 -6 -23 -22 -59 -35 -78 -14 -20 -27 -52
-31 -73 -3 -20 -19 -58 -34 -86 -15 -27 -31 -66 -35 -85 -4 -19 -17 -51 -30
-70 -13 -19 -29 -57 -36 -85 -7 -27 -22 -66 -35 -85 -12 -19 -28 -60 -35 -90
-6 -30 -23 -71 -35 -90 -13 -20 -28 -56 -32 -82 -5 -25 -19 -60 -31 -77 -12
-17 -29 -59 -38 -92 -8 -34 -26 -77 -38 -96 -13 -18 -26 -52 -30 -75 -4 -23
-18 -58 -30 -78 -13 -19 -28 -59 -35 -89 -7 -30 -23 -70 -36 -89 -13 -19 -26
-50 -29 -71 -3 -20 -19 -63 -35 -96 -16 -33 -32 -78 -36 -100 -3 -22 -19 -65
-34 -95 -16 -30 -33 -77 -39 -103 -6 -26 -20 -60 -31 -75 -11 -15 -24 -51 -30
-81 -6 -30 -21 -73 -34 -95 -13 -23 -28 -64 -34 -92 -6 -29 -21 -68 -32 -88
-12 -19 -28 -64 -36 -98 -8 -35 -25 -83 -38 -108 -13 -25 -26 -65 -30 -90 -4
-25 -20 -70 -35 -100 -15 -30 -31 -77 -34 -103 -4 -26 -18 -67 -32 -91 -14
-24 -30 -68 -36 -99 -5 -31 -23 -82 -39 -113 -17 -31 -30 -70 -30 -88 0 -17
-13 -59 -30 -94 -16 -35 -35 -93 -40 -129 -6 -35 -20 -77 -31 -92 -11 -15 -24
-57 -30 -96 -6 -39 -22 -89 -36 -112 -13 -22 -28 -70 -34 -105 -5 -34 -20 -83
-34 -108 -13 -25 -27 -70 -31 -100 -3 -30 -19 -85 -35 -121 -16 -37 -33 -95
-38 -130 -5 -35 -20 -85 -33 -110 -15 -28 -28 -73 -32 -114 -4 -40 -17 -87
-31 -116 -14 -27 -30 -82 -36 -124 -5 -41 -21 -99 -34 -127 -13 -29 -29 -90
-34 -135 -6 -46 -20 -101 -32 -125 -12 -24 -27 -84 -35 -142 -9 -61 -22 -112
-34 -131 -13 -20 -26 -72 -34 -134 -8 -56 -24 -122 -36 -146 -13 -27 -25 -79
-31 -137 -10 -97 -22 -148 -46 -184 -7 -12 -18 -68 -23 -125 -6 -75 -16 -119
-34 -159 -19 -41 -27 -84 -35 -170 -7 -79 -17 -130 -32 -165 -15 -34 -26 -90
-35 -181 -8 -84 -21 -150 -35 -185 -14 -35 -24 -93 -30 -167 -10 -117 -33
-199 -70 -246 -23 -29 -60 -34 -79 -11 -20 24 -6 166 25 252 14 42 25 95 25
125 1 83 17 180 41 233 14 32 24 82 29 149 10 116 16 147 41 196 11 21 21 68
24 120 8 103 23 177 43 208 8 13 21 73 28 135 8 68 21 132 34 162 13 29 28 96
35 161 9 72 21 125 35 151 13 26 25 76 32 138 6 61 19 117 34 151 13 30 28 93
35 144 6 54 21 114 36 148 15 34 28 89 33 137 5 50 18 103 35 140 14 32 28 86
32 120 3 33 18 89 33 125 16 36 31 92 35 125 4 33 18 82 31 108 13 27 28 78
34 115 6 37 22 90 35 118 14 28 30 79 36 113 5 35 20 84 33 110 13 26 27 69
31 96 4 28 20 77 36 111 16 33 32 83 35 110 4 27 17 68 29 91 12 22 28 65 35
95 6 29 27 92 46 139 19 48 34 95 34 105 0 11 11 43 25 71 13 29 29 78 34 108
6 30 21 74 35 98 13 23 27 62 31 87 4 25 18 66 31 91 12 25 30 75 38 111 8 36
24 81 35 99 11 19 27 64 34 100 8 36 24 79 35 95 12 16 27 55 32 86 6 32 24
83 40 114 17 31 30 68 30 83 0 14 13 51 30 82 16 31 32 76 36 100 4 24 18 63
31 85 13 23 30 66 38 96 8 30 25 77 39 103 15 26 26 58 26 70 0 25 17 67 41
105 9 14 22 49 29 79 7 30 23 69 36 88 12 18 26 48 30 66 3 18 18 54 31 81 14
27 32 72 40 100 8 28 26 69 39 92 13 22 24 51 24 64 0 12 13 46 29 74 16 28
37 76 46 106 10 30 26 66 36 80 10 14 23 46 29 72 5 26 21 63 35 84 14 20 25
44 25 53 0 10 15 48 34 87 18 38 39 87 46 109 7 22 23 58 35 80 13 22 26 56
30 75 4 19 18 50 31 70 13 19 26 51 30 70 4 19 19 58 34 85 16 28 34 70 41 95
7 25 23 59 35 77 12 18 25 49 29 69 3 20 20 60 36 89 16 28 29 59 29 68 0 9
18 52 40 94 22 43 40 84 40 91 0 7 14 36 30 65 17 30 30 60 30 68 0 8 13 39
30 69 16 30 29 64 30 74 0 11 13 43 29 71 16 29 37 77 46 108 9 30 23 61 31
67 8 7 22 38 30 69 9 30 27 71 40 91 13 19 27 54 32 77 5 23 18 54 29 70 11
15 28 55 38 88 9 33 25 69 35 80 10 11 24 43 31 70 7 28 20 59 30 70 24 29 35
55 43 96 4 21 13 42 21 49 8 6 24 37 35 68 12 31 32 77 45 102 13 25 31 65 39
90 30 85 136 126 136 53z m3460 21 c20 -51 12 -123 -19 -178 -17 -31 -31 -74
-36 -110 -4 -36 -16 -73 -31 -95 -13 -20 -28 -61 -35 -91 -6 -30 -22 -67 -34
-82 -13 -15 -28 -51 -35 -80 -6 -30 -21 -64 -35 -78 -15 -15 -29 -46 -34 -75
-8 -43 -30 -75 -52 -75 -25 0 -39 35 -39 99 0 56 4 75 25 106 14 20 32 65 39
98 7 34 25 80 39 101 15 21 27 49 27 61 0 32 20 87 40 110 10 11 23 45 30 75
7 30 24 68 36 83 13 16 26 39 29 53 3 13 8 36 11 51 12 57 57 73 74 27z m7648
-61 c2 -12 -6 -35 -17 -50 -12 -15 -25 -51 -30 -79 -6 -29 -21 -68 -35 -89
-14 -20 -28 -53 -32 -74 -4 -20 -19 -56 -35 -80 -16 -24 -32 -60 -35 -80 -4
-20 -18 -52 -31 -71 -13 -19 -28 -52 -34 -73 -5 -21 -23 -59 -40 -84 -16 -26
-29 -53 -29 -61 0 -8 -13 -40 -29 -71 -47 -89 -109 -224 -116 -251 -4 -14 -15
-34 -25 -45 -10 -11 -25 -42 -34 -69 -9 -27 -26 -60 -36 -74 -11 -13 -26 -46
-34 -71 -7 -26 -25 -64 -40 -85 -14 -21 -26 -49 -26 -61 0 -12 -8 -33 -19 -46
-26 -33 -51 -85 -51 -104 0 -9 -11 -31 -25 -49 -14 -18 -31 -53 -38 -77 -8
-24 -26 -62 -40 -83 -15 -21 -27 -49 -27 -61 0 -12 -12 -40 -26 -61 -15 -21
-35 -63 -45 -93 -11 -30 -26 -62 -34 -71 -8 -9 -24 -43 -35 -75 -11 -32 -25
-64 -31 -71 -6 -7 -20 -32 -32 -56 -25 -49 -48 -56 -116 -38 -34 9 -41 15 -41
36 0 15 11 39 25 56 13 16 31 51 39 79 8 27 24 61 36 76 11 14 25 44 31 67 6
22 24 61 40 85 16 25 29 53 29 64 0 11 13 41 29 66 16 25 32 60 35 76 4 17 20
51 36 75 17 25 30 53 30 63 0 19 25 73 45 97 7 8 20 38 29 67 10 28 23 57 31
63 8 6 23 40 35 75 12 35 27 69 35 75 8 6 21 35 31 63 9 29 24 61 33 72 21 24
41 70 41 92 0 8 11 28 25 45 13 16 31 51 39 79 8 27 24 61 36 76 11 14 25 44
31 67 6 22 19 50 29 61 24 27 40 60 40 82 0 11 13 37 29 59 16 21 32 55 36 74
4 19 19 49 32 67 13 17 29 48 35 69 5 21 20 52 33 69 13 16 27 44 31 60 4 17
19 44 34 62 16 17 33 47 40 67 13 41 84 98 115 94 12 -2 21 -12 23 -25z
m-11364 1 c19 -19 19 -23 2 -96 -8 -32 -25 -71 -38 -87 -12 -16 -31 -43 -40
-60 -19 -34 -56 -42 -78 -16 -19 23 -6 123 20 154 11 14 27 40 35 58 28 61 67
80 99 47z m11020 -40 c24 -24 20 -77 -8 -103 -16 -15 -27 -39 -31 -72 -4 -31
-17 -62 -35 -85 -17 -20 -32 -54 -36 -79 -3 -25 -13 -50 -21 -56 -21 -18 -43
-64 -43 -92 0 -12 -13 -41 -29 -63 -16 -21 -34 -58 -40 -80 -6 -23 -20 -53
-31 -67 -12 -15 -27 -48 -35 -75 -8 -27 -24 -61 -35 -75 -12 -15 -27 -48 -35
-75 -8 -27 -23 -60 -34 -73 -10 -13 -26 -46 -35 -73 -9 -27 -26 -60 -36 -74
-11 -13 -27 -47 -35 -74 -8 -27 -23 -60 -35 -75 -11 -14 -25 -44 -31 -67 -6
-22 -22 -53 -35 -69 -13 -15 -26 -44 -30 -65 -4 -20 -17 -50 -30 -65 -13 -15
-29 -47 -36 -70 -7 -23 -25 -62 -40 -86 -15 -25 -28 -52 -28 -62 0 -9 -12 -34
-27 -55 -14 -21 -32 -58 -39 -82 -7 -24 -23 -56 -34 -72 -11 -16 -27 -48 -36
-72 -8 -23 -25 -60 -38 -83 -13 -22 -31 -64 -40 -92 -23 -69 -57 -97 -110 -90
-21 3 -46 12 -54 21 -14 13 -12 22 12 78 15 35 33 70 40 78 7 8 21 37 30 64 9
27 23 57 31 66 8 9 23 41 34 71 10 30 30 72 45 93 14 21 26 49 26 61 0 12 8
33 19 46 26 33 51 85 51 104 0 9 12 32 26 50 14 19 30 53 35 76 6 23 21 55 34
71 14 16 27 42 30 56 3 15 12 38 20 52 8 14 24 45 35 70 11 25 27 57 35 73 8
15 21 39 28 55 8 15 30 59 50 99 21 40 37 79 37 86 0 8 12 31 26 52 14 21 34
62 45 91 11 28 26 58 34 64 8 7 19 29 25 50 5 20 22 55 36 76 15 22 31 53 36
70 4 18 19 47 32 66 13 20 29 51 35 70 6 19 23 50 36 69 14 18 30 51 36 72 5
21 18 46 29 57 25 25 40 55 40 80 0 12 18 39 40 61 22 22 40 46 40 54 0 11 23
32 37 35 1 0 9 -7 17 -16z m-11579 -1224 c23 -25 17 -106 -12 -146 -11 -16
-25 -45 -32 -64 -6 -19 -30 -64 -54 -100 -39 -59 -45 -65 -77 -65 -33 0 -35 2
-38 39 -5 53 3 76 37 119 16 20 32 53 35 72 4 21 17 41 31 51 13 9 29 32 36
52 10 34 33 62 49 62 4 0 15 -9 25 -20z m-291 -666 c21 -8 21 -63 1 -90 -8
-10 -20 -36 -25 -58 -7 -23 -28 -53 -53 -77 -49 -45 -76 -57 -88 -38 -14 23
-10 83 7 107 8 12 23 46 32 75 14 42 24 55 52 69 38 19 50 21 74 12z m3810
-50 c3 -9 -3 -31 -14 -49 -12 -19 -24 -65 -30 -111 -7 -55 -17 -88 -35 -114
-16 -23 -28 -60 -35 -107 -6 -45 -18 -84 -33 -106 -14 -21 -29 -64 -36 -108
-7 -46 -19 -82 -31 -94 -13 -13 -25 -51 -34 -102 -8 -48 -23 -93 -35 -110 -12
-16 -26 -57 -32 -93 -5 -36 -18 -76 -28 -90 -22 -30 -37 -79 -45 -142 -3 -25
-16 -62 -30 -82 -13 -20 -29 -65 -35 -102 -7 -36 -21 -79 -32 -94 -12 -15 -27
-59 -34 -98 -8 -39 -23 -84 -35 -99 -11 -16 -25 -58 -31 -93 -6 -39 -20 -79
-35 -101 -13 -20 -29 -62 -34 -94 -6 -34 -19 -70 -34 -90 -17 -22 -28 -52 -32
-89 -5 -41 -15 -67 -35 -92 -16 -20 -31 -53 -34 -73 -14 -81 -18 -92 -37 -104
-11 -7 -29 -31 -39 -55 -31 -71 -69 -67 -69 9 0 25 7 42 24 58 19 18 24 35 28
92 4 54 11 78 33 109 20 29 29 58 35 110 6 52 14 78 29 94 14 15 26 48 34 97
7 41 25 94 39 119 15 26 29 70 33 104 4 35 16 74 30 95 13 20 29 65 35 101 6
36 21 85 35 110 13 25 28 71 34 104 6 32 20 74 32 93 12 19 28 66 35 104 7 38
23 83 34 99 11 16 26 58 32 92 5 35 21 82 35 106 13 23 29 70 35 105 5 34 21
78 34 98 14 21 29 63 35 100 6 38 20 79 35 100 16 23 29 60 34 99 6 39 16 70
29 84 25 27 41 69 41 109 0 40 6 49 55 86 45 34 70 38 79 15z m-3990 -360 c29
-29 20 -95 -26 -186 -23 -46 -52 -97 -64 -113 -13 -17 -27 -42 -33 -57 -6 -16
-21 -30 -36 -34 -44 -11 -55 0 -55 60 0 43 5 61 24 83 31 38 46 67 46 92 0 11
13 35 29 53 15 18 34 50 40 70 16 49 46 62 75 32z m480 -76 c32 -45 17 -93
-45 -146 -56 -49 -99 -39 -99 22 0 27 28 80 69 129 20 24 57 21 75 -5z m3512
-433 c15 -23 15 -27 -11 -71 -19 -32 -30 -71 -37 -122 -5 -46 -18 -91 -32
-116 -13 -23 -29 -71 -35 -108 -7 -38 -22 -83 -35 -102 -14 -21 -26 -58 -30
-91 -3 -32 -20 -85 -36 -119 -16 -33 -32 -83 -36 -111 -4 -27 -17 -68 -30 -90
-12 -22 -28 -68 -34 -102 -6 -34 -21 -81 -35 -105 -13 -24 -29 -72 -35 -108
-6 -35 -20 -77 -31 -92 -11 -15 -26 -58 -33 -95 -7 -37 -25 -89 -39 -115 -14
-26 -28 -71 -32 -100 -4 -29 -18 -75 -32 -102 -13 -26 -29 -76 -34 -110 -6
-33 -21 -83 -35 -110 -15 -27 -30 -78 -35 -114 -5 -35 -20 -82 -34 -105 -14
-24 -29 -74 -36 -116 -6 -42 -20 -86 -31 -101 -11 -15 -24 -57 -30 -101 -6
-41 -22 -96 -35 -122 -13 -27 -30 -86 -38 -132 -8 -51 -21 -94 -34 -112 -13
-18 -25 -57 -32 -108 -6 -48 -20 -95 -34 -120 -14 -24 -28 -71 -34 -117 -6
-45 -21 -98 -35 -125 -14 -27 -28 -76 -32 -113 -4 -37 -19 -90 -35 -124 -16
-34 -30 -85 -35 -125 -4 -39 -18 -91 -34 -126 -16 -35 -31 -87 -35 -125 -4
-37 -17 -86 -31 -114 -14 -28 -29 -82 -34 -123 -5 -40 -20 -94 -34 -120 -14
-28 -28 -83 -35 -132 -6 -50 -19 -97 -32 -117 -13 -21 -26 -71 -35 -135 -8
-61 -24 -122 -38 -153 -16 -33 -27 -79 -31 -131 -4 -49 -17 -103 -32 -139 -14
-33 -28 -95 -34 -145 -5 -48 -21 -115 -35 -151 -14 -35 -30 -101 -34 -145 -9
-82 -17 -114 -43 -175 -8 -19 -20 -76 -26 -126 -6 -50 -22 -117 -35 -150 -14
-34 -28 -99 -34 -154 -6 -52 -20 -120 -32 -150 -12 -30 -28 -102 -35 -160 -8
-58 -23 -127 -34 -153 -12 -27 -25 -88 -31 -135 -10 -91 -18 -124 -43 -182 -9
-20 -20 -79 -26 -132 -7 -61 -19 -112 -32 -138 -12 -23 -27 -83 -35 -142 -15
-108 -26 -128 -70 -128 -38 0 -47 23 -40 103 3 39 10 124 15 187 11 136 17
176 43 244 10 28 23 96 28 151 6 65 20 133 39 192 17 50 31 111 31 134 0 48
20 131 40 168 7 13 18 69 26 125 7 56 22 122 34 149 12 26 26 88 31 138 7 57
20 113 35 148 15 32 29 91 35 137 5 46 20 106 34 137 13 31 29 94 35 140 5 46
19 102 30 124 23 49 39 115 40 165 0 20 13 69 29 110 16 40 32 102 36 138 4
38 17 85 31 113 16 31 28 78 34 129 6 53 18 98 35 130 17 32 29 77 35 128 6
50 18 97 34 129 16 31 29 79 35 128 5 49 17 92 30 115 13 22 29 75 37 129 9
55 23 104 35 120 11 16 23 58 29 105 6 46 21 98 35 124 13 25 28 79 34 121 10
74 17 97 46 149 8 14 18 59 23 100 6 45 18 90 32 112 12 20 28 73 35 116 8 44
25 100 38 124 13 25 27 74 31 109 5 38 17 79 32 106 15 25 29 70 35 110 5 37
20 88 33 113 14 25 29 77 34 117 6 44 20 88 36 115 15 26 29 72 35 111 5 37
19 83 32 103 12 19 27 68 34 109 8 42 22 85 34 102 13 17 26 57 32 98 6 39 22
88 34 110 13 22 29 71 36 110 6 38 20 81 30 95 11 14 25 57 33 95 7 39 25 91
39 117 14 26 28 71 32 100 4 29 18 72 31 94 14 23 29 70 35 105 6 35 19 75 28
89 20 28 36 75 46 135 4 22 17 58 30 80 13 22 29 68 35 103 6 34 22 78 35 98
14 20 27 58 31 90 12 101 100 169 140 109z m-4202 -1 c31 -30 18 -78 -59 -224
-8 -14 -34 -36 -58 -50 -38 -21 -47 -23 -61 -11 -22 19 -20 73 5 105 11 14 25
43 31 63 6 24 29 54 61 85 29 26 55 48 59 48 4 0 14 -7 22 -16z m5082 -411
c10 -13 13 -59 14 -165 0 -164 -7 -198 -43 -198 -54 0 -83 82 -73 202 9 107
15 133 38 157 23 26 46 27 64 4z m-5233 -18 c-4 -42 -42 -159 -60 -183 -11
-14 -31 -35 -46 -46 -22 -16 -31 -18 -51 -8 -36 16 -42 53 -18 99 12 21 32 61
45 89 27 54 55 74 102 71 23 -2 30 -6 28 -22z m-242 -602 c14 -37 5 -86 -22
-125 -13 -17 -32 -50 -43 -72 -16 -32 -28 -42 -50 -44 -68 -8 -94 19 -62 64 8
11 19 39 26 62 6 24 17 45 25 48 8 3 26 26 40 50 32 54 69 61 86 17z m5517
-320 c23 -14 42 -50 42 -79 0 -22 -46 -64 -70 -64 -36 0 -70 44 -70 91 0 73
35 92 98 52z m-5861 -555 c16 -28 6 -114 -20 -159 -13 -24 -28 -65 -31 -91 -4
-25 -18 -61 -31 -80 -13 -18 -33 -50 -45 -70 -35 -64 -80 -46 -80 31 0 32 7
56 25 81 14 19 29 60 35 89 6 35 20 65 40 87 16 19 30 43 30 54 0 40 19 70 44
70 14 0 28 -6 33 -12z m485 -67 c16 -41 1 -131 -26 -161 -13 -14 -31 -40 -40
-58 -15 -28 -22 -33 -48 -30 -24 2 -34 9 -41 31 -12 38 -1 91 27 124 13 16 29
47 35 70 18 66 71 79 93 24z m3435 -143 c30 -38 21 -132 -16 -179 -11 -15 -22
-55 -29 -108 -7 -59 -17 -93 -33 -114 -14 -20 -27 -59 -35 -110 -9 -54 -19
-87 -34 -102 -14 -15 -24 -45 -31 -91 -5 -38 -17 -79 -27 -92 -33 -45 -52 -87
-52 -113 0 -34 -23 -64 -44 -56 -43 17 -47 150 -6 205 15 21 27 58 35 117 10
63 19 93 35 110 16 17 24 44 31 102 7 50 17 85 28 98 28 31 31 40 42 107 7 44
18 71 38 94 17 19 32 50 36 76 8 47 20 68 40 68 7 0 17 -6 22 -12z m-4133
-414 c25 -24 20 -109 -9 -172 -14 -30 -31 -77 -38 -105 -8 -29 -26 -70 -40
-91 -15 -21 -27 -50 -27 -63 0 -26 -41 -73 -64 -73 -30 0 -45 28 -35 62 5 18
9 49 9 69 0 23 11 52 29 80 17 25 32 65 36 94 4 28 19 70 34 95 14 25 32 58
39 75 20 46 41 55 66 29z m-1750 -155 c30 -36 32 -59 12 -185 -8 -49 -19 -122
-25 -162 -7 -41 -18 -87 -27 -104 -8 -16 -22 -66 -31 -111 -8 -45 -25 -104
-38 -133 -13 -28 -26 -70 -30 -93 -4 -23 -22 -78 -41 -124 -18 -45 -34 -90
-34 -100 0 -10 -11 -39 -24 -65 -13 -26 -29 -68 -36 -92 -6 -25 -22 -63 -35
-85 -12 -22 -28 -59 -34 -83 -7 -23 -23 -59 -36 -79 -14 -19 -30 -53 -35 -74
-6 -21 -15 -41 -21 -44 -5 -4 -23 -32 -38 -63 -15 -32 -38 -74 -52 -94 -13
-20 -37 -58 -52 -85 -34 -57 -58 -95 -92 -143 -14 -19 -39 -56 -57 -82 -204
-295 -477 -581 -774 -813 -136 -106 -441 -278 -558 -315 -22 -7 -53 -21 -70
-30 -17 -10 -56 -23 -86 -30 -30 -7 -75 -21 -99 -32 -24 -10 -82 -25 -128 -33
-47 -8 -107 -21 -134 -29 -68 -21 -243 -40 -291 -32 -114 18 -147 96 -78 183
10 13 24 41 31 61 6 20 20 46 30 57 10 11 27 40 39 65 11 25 29 56 39 70 10
14 31 47 47 74 36 61 61 101 99 159 17 25 53 80 80 123 28 42 61 94 75 114 14
20 35 52 47 71 12 19 33 50 48 69 14 19 46 67 70 105 24 39 55 86 70 105 73
99 94 130 105 151 7 13 24 38 37 54 14 17 55 73 93 125 274 380 655 780 1155
1210 156 135 455 370 470 370 3 0 27 15 54 33 122 81 253 144 303 146 18 1 34
-9 52 -30z m2154 -141 c20 -20 14 -83 -13 -136 -14 -28 -25 -60 -25 -73 0 -29
-97 -120 -125 -117 -28 4 -34 88 -9 126 10 15 25 59 34 97 14 59 22 73 50 93
36 24 70 28 88 10z m3347 -612 c15 -22 15 -33 1 -111 -10 -58 -21 -95 -35
-109 -11 -11 -25 -42 -31 -68 -13 -52 -30 -71 -57 -66 -52 10 -54 131 -4 238
17 36 31 72 31 80 0 27 30 60 55 60 15 0 31 -10 40 -24z m-3604 -97 c7 -14 10
-55 7 -110 -3 -73 -8 -93 -25 -111 -12 -13 -27 -45 -34 -73 -16 -60 -25 -75
-50 -75 -61 0 -67 161 -10 262 17 30 31 61 31 69 0 24 30 59 50 59 11 0 24
-10 31 -21z m-541 -225 c17 -43 12 -129 -8 -154 -25 -31 -58 -19 -70 23 -9 33
-2 123 11 145 15 22 57 14 67 -14z m3997 -224 c15 -30 17 -94 3 -121 -14 -25
-66 -26 -78 -1 -6 9 -13 35 -16 57 -13 76 60 127 91 65z m-8157 -109 c0 -17
-52 -107 -78 -134 -38 -41 -60 -51 -78 -36 -22 18 -17 34 29 83 62 65 127 110
127 87z m3000 -90 c0 -14 -9 -39 -20 -56 -12 -16 -28 -46 -36 -65 -8 -19 -24
-44 -35 -55 -11 -11 -29 -35 -40 -53 -26 -44 -53 -40 -57 9 -2 27 3 44 21 65
13 16 29 45 36 65 7 21 24 50 39 66 15 17 35 40 45 52 15 18 21 20 33 11 8 -7
14 -24 14 -39z m5084 -93 c30 -43 14 -156 -23 -159 -32 -3 -46 3 -68 24 -35
36 -34 97 2 132 30 31 69 32 89 3z m-8357 -193 c3 -9 -2 -24 -11 -34 -9 -10
-21 -35 -27 -55 -5 -19 -21 -49 -34 -65 -14 -16 -25 -33 -25 -38 0 -5 -14 -31
-32 -59 -18 -27 -40 -65 -50 -84 -10 -19 -28 -49 -41 -66 -24 -35 -49 -75 -85
-138 -13 -23 -32 -50 -42 -61 -10 -11 -25 -37 -34 -58 -8 -20 -22 -40 -31 -43
-9 -4 -25 -24 -36 -46 -13 -26 -26 -38 -37 -36 -27 5 -26 51 1 84 14 16 30 48
36 71 6 22 18 47 27 54 8 7 29 40 45 73 16 34 42 81 57 106 15 25 36 60 47 79
11 18 30 47 42 65 12 17 32 49 44 71 12 22 31 51 44 65 12 14 29 37 37 52 12
26 72 76 91 78 4 0 10 -7 14 -15z m8279 -126 c13 -15 19 -36 19 -69 0 -75 -48
-111 -105 -80 -46 24 -29 139 22 160 34 13 43 12 64 -11z m-8868 -308 c2 -23
-3 -43 -18 -63 -11 -15 -30 -49 -40 -73 -19 -44 -63 -76 -81 -58 -15 16 13
117 42 148 15 17 33 43 38 58 8 21 17 28 34 25 17 -2 23 -11 25 -37z m8761
-13 c40 -54 41 -98 5 -127 -54 -42 -94 -12 -94 71 0 104 37 127 89 56z m-4693
-164 c6 -24 3 -33 -31 -94 -7 -14 -18 -76 -25 -138 -6 -63 -21 -146 -34 -186
-14 -43 -27 -112 -31 -167 -4 -52 -19 -148 -35 -214 -18 -75 -31 -162 -35
-232 -3 -62 -19 -180 -35 -262 -19 -95 -30 -180 -30 -234 0 -119 -17 -319 -41
-482 -17 -111 -22 -205 -25 -450 -3 -170 -7 -324 -10 -341 -6 -42 -47 -95
-278 -367 -329 -386 -498 -560 -762 -778 -139 -116 -436 -330 -530 -382 -43
-24 -120 -70 -144 -87 -14 -9 -47 -27 -75 -39 -27 -12 -56 -28 -65 -36 -9 -8
-35 -21 -58 -29 -23 -8 -58 -26 -79 -40 -21 -15 -44 -26 -53 -26 -8 0 -42 -13
-75 -30 -81 -39 -229 -96 -290 -111 -27 -7 -72 -22 -100 -34 -27 -13 -75 -26
-105 -30 -30 -3 -95 -18 -145 -31 -95 -26 -282 -42 -548 -45 -150 -1 -162 4
-196 82 -12 30 -38 86 -57 125 -19 39 -34 77 -34 84 0 7 -13 36 -29 64 -16 28
-32 67 -36 86 -4 19 -13 44 -20 55 -33 53 -81 298 -91 465 -11 195 49 1008 86
1165 10 44 21 109 25 145 9 88 25 176 41 227 7 23 21 88 30 145 9 57 26 130
39 163 12 33 25 84 29 114 4 30 18 80 31 112 14 31 29 79 35 106 6 26 24 77
41 113 17 36 36 75 42 87 13 29 71 56 100 47 12 -3 37 -17 54 -31 18 -13 50
-30 70 -37 21 -8 60 -25 87 -40 27 -14 55 -26 62 -26 7 0 39 -12 71 -26 32
-14 96 -36 143 -49 47 -13 103 -30 125 -38 50 -19 324 -47 454 -47 159 0 397
29 471 57 36 13 88 29 117 34 28 5 78 23 110 39 32 16 64 30 72 30 8 0 43 16
78 35 35 19 69 35 75 35 6 0 32 13 57 28 25 16 80 48 121 72 41 24 91 57 111
72 20 15 41 28 45 28 5 1 34 20 65 43 31 23 90 68 132 99 180 136 412 355 558
529 89 107 219 272 251 322 29 45 54 81 93 137 14 19 34 54 45 77 12 25 34 50
50 58 18 9 32 27 36 43 15 63 39 81 50 36z m4611 -140 c35 -54 14 -204 -29
-204 -6 0 -20 7 -30 17 -25 22 -27 173 -2 197 22 23 41 20 61 -10z m-4063 -98
c25 -32 29 -114 7 -139 -19 -23 -68 -22 -81 2 -20 38 -5 145 22 163 18 11 29
6 52 -26z m3990 -272 c9 -8 16 -30 17 -47 3 -87 -8 -117 -42 -117 -32 0 -49
28 -49 83 0 80 36 119 74 81z m6576 -140 c17 -19 16 -130 0 -182 -7 -20 -21
-55 -31 -78 -10 -22 -19 -60 -19 -85 0 -63 -14 -105 -49 -145 -17 -19 -31 -41
-31 -48 0 -8 -8 -24 -18 -36 -17 -21 -19 -21 -35 -5 -25 24 -21 86 8 141 19
35 25 62 25 108 0 88 17 177 39 207 11 14 25 46 31 70 7 24 17 50 22 57 14 17
43 15 58 -4z m-15659 -101 c15 -38 5 -106 -24 -178 -14 -33 -30 -85 -36 -117
-5 -31 -21 -82 -35 -115 -13 -32 -29 -85 -35 -117 -6 -33 -22 -87 -35 -120
-13 -34 -27 -81 -31 -106 -4 -25 -19 -83 -35 -130 -16 -47 -31 -103 -34 -126
-3 -22 -17 -75 -31 -117 -13 -42 -29 -107 -35 -144 -6 -37 -20 -94 -31 -126
-11 -32 -27 -98 -34 -147 -7 -50 -25 -116 -40 -147 -14 -31 -30 -88 -36 -127
-15 -107 -41 -116 -52 -17 -6 50 0 92 31 216 11 44 25 127 30 185 6 58 21 134
32 169 12 35 28 105 35 155 8 50 23 120 35 156 12 36 27 97 35 135 7 39 22 93
33 121 12 28 26 80 32 115 6 34 20 79 30 99 10 20 26 65 35 100 9 35 27 84 40
109 12 25 26 62 30 81 4 19 17 51 30 71 13 20 29 56 35 80 20 73 43 89 61 42z
m9017 -65 c16 -21 24 -123 12 -167 -11 -41 -37 -65 -57 -53 -34 21 -46 169
-17 210 17 24 46 29 62 10z m-8817 -189 c15 -29 6 -99 -19 -148 -12 -21 -26
-68 -32 -103 -6 -35 -23 -87 -36 -117 -14 -29 -28 -70 -31 -90 -7 -41 -27 -86
-52 -116 -10 -11 -23 -39 -30 -62 -7 -25 -18 -43 -26 -43 -33 0 -31 100 4 168
10 21 24 68 30 107 7 38 21 84 32 101 10 17 26 64 35 103 10 42 26 84 40 100
12 15 26 41 30 57 15 65 35 80 55 43z m15526 -149 c10 -10 24 -35 31 -54 11
-30 11 -41 -4 -71 -19 -41 -57 -56 -81 -33 -20 21 -23 138 -4 161 18 22 36 21
58 -3z m-16139 -132 c7 -7 12 -28 12 -49 0 -37 -64 -244 -82 -266 -16 -20 -46
-15 -53 8 -12 37 6 132 34 184 15 28 31 63 35 80 13 50 32 65 54 43z m16080
-200 c17 -36 2 -124 -33 -192 -14 -27 -25 -64 -25 -81 0 -42 -18 -92 -36 -99
-45 -17 -69 48 -61 170 4 73 9 88 46 149 22 38 41 73 41 78 0 4 12 7 27 5 19
-2 32 -12 41 -30z m-214 -11 c9 -24 6 -38 -16 -80 -22 -42 -29 -73 -36 -163
-6 -82 -15 -123 -31 -158 -13 -26 -27 -80 -32 -121 -12 -106 -20 -144 -41
-192 -10 -24 -25 -79 -33 -123 -8 -44 -23 -101 -35 -127 -11 -25 -25 -78 -31
-117 -6 -39 -21 -96 -34 -126 -13 -30 -28 -84 -34 -119 -7 -40 -20 -75 -36
-97 -14 -18 -25 -38 -25 -44 0 -6 -7 -25 -16 -41 -11 -22 -21 -29 -37 -27 -52
7 -57 100 -11 188 16 31 27 74 34 141 6 63 18 114 34 150 14 30 29 90 35 136
6 46 20 101 32 125 12 23 28 82 35 131 8 51 22 102 34 121 12 20 25 67 31 117
8 57 21 101 40 138 20 37 29 68 29 100 0 62 15 111 40 128 11 8 29 32 41 54
23 47 48 49 63 6z m-6580 -119 c10 -14 16 -44 16 -78 0 -68 -19 -100 -60 -100
-41 0 -60 24 -61 78 -2 69 0 75 27 100 32 28 59 28 78 0z m-9444 -318 c22 -22
25 -46 10 -70 -13 -22 -62 -1 -74 32 -19 54 23 79 64 38z m450 -80 c16 -38 9
-64 -16 -68 -33 -5 -59 69 -33 95 16 16 35 6 49 -27z m15648 -10 c17 -33 7
-110 -23 -174 -15 -34 -27 -86 -34 -155 -8 -74 -17 -111 -31 -131 -11 -16 -25
-55 -31 -87 -16 -89 -18 -93 -64 -115 -36 -18 -46 -19 -59 -8 -20 16 -20 52
-2 89 8 15 20 65 26 112 6 46 23 112 36 146 14 34 29 86 34 115 10 61 24 103
39 112 5 4 15 23 21 44 27 83 61 103 88 52z m-6781 -32 c45 -50 55 -97 27
-136 -17 -24 -62 -30 -82 -10 -18 18 -15 133 4 152 20 21 27 20 51 -6z m-66
-470 c7 -12 12 -46 13 -75 1 -91 -59 -124 -85 -46 -12 37 -5 108 13 130 16 20
46 15 59 -9z m268 -112 c13 -16 19 -187 7 -223 -8 -24 -29 -35 -51 -27 -7 3
-22 26 -31 50 -21 56 -15 165 11 194 21 24 48 26 64 6z m-4069 -241 c7 -8 14
-52 17 -97 5 -91 -9 -133 -42 -133 -33 0 -46 42 -42 132 3 80 16 113 42 113 7
0 18 -7 25 -15z m10380 -67 c31 -50 34 -76 17 -114 -14 -27 -22 -34 -46 -34
-37 0 -51 23 -51 84 0 92 42 125 80 64z m-6410 -128 c43 -23 50 -139 10 -175
-11 -10 -31 -15 -52 -13 -29 3 -35 8 -46 43 -30 93 22 180 88 145z m-108 -417
c36 -43 50 -128 32 -206 -17 -71 -28 -87 -60 -87 -34 0 -44 33 -44 138 0 92
11 150 32 164 18 11 23 10 40 -9z m-63 -507 c18 -22 24 -126 9 -171 -10 -32
-18 -40 -38 -40 -16 0 -29 9 -37 25 -18 36 -17 150 3 178 17 25 46 29 63 8z
m6379 -131 c15 -43 10 -132 -9 -167 -14 -26 -50 -20 -66 12 -17 34 -16 123 2
166 21 50 55 45 73 -11z m-208 -11 c13 -33 13 -478 0 -565 -11 -74 -64 -218
-87 -236 -22 -17 -41 -5 -51 30 -13 52 3 283 26 372 11 44 23 125 27 180 10
172 15 205 36 226 26 26 38 24 49 -7z m-6169 -246 c17 -32 5 -200 -21 -273
-11 -33 -25 -99 -29 -147 -5 -48 -14 -94 -21 -103 -16 -20 -44 -19 -61 1 -17
21 -25 292 -11 394 10 69 14 78 51 113 46 42 75 47 92 15z m-287 -490 c10 -14
16 -44 16 -78 0 -71 -19 -100 -65 -100 -46 0 -65 29 -65 100 0 71 19 100 65
100 24 0 39 -7 49 -22z m151 -1136 c0 -331 -3 -422 -13 -441 -12 -21 -16 -22
-29 -8 -36 35 -38 839 -3 882 12 15 15 15 29 0 14 -14 16 -65 16 -433z m-196
-558 c73 -51 68 -229 -9 -299 -28 -26 -52 -11 -63 41 -12 54 1 224 19 252 17
26 22 27 53 6z"/>
<path d="M64380 34069 c-58 -5 -174 -15 -258 -24 -83 -8 -217 -20 -297 -25
-79 -5 -166 -15 -192 -21 -75 -17 -200 -38 -291 -49 -46 -6 -135 -24 -198 -40
-64 -17 -128 -30 -144 -30 -15 0 -68 -13 -117 -29 -49 -16 -112 -32 -139 -36
-27 -4 -74 -18 -105 -31 -30 -12 -86 -30 -122 -38 -37 -9 -85 -25 -106 -36
-22 -11 -60 -24 -86 -30 -26 -6 -76 -24 -111 -40 -35 -17 -69 -30 -77 -30 -8
0 -40 -13 -73 -29 -32 -16 -77 -34 -99 -41 -22 -7 -47 -18 -55 -26 -9 -7 -42
-23 -75 -35 -33 -13 -71 -31 -84 -41 -13 -10 -29 -18 -35 -18 -7 0 -37 -15
-67 -33 -30 -18 -70 -39 -89 -47 -19 -8 -46 -22 -60 -32 -14 -10 -44 -28 -67
-40 -60 -32 -210 -125 -258 -160 -22 -15 -74 -52 -116 -81 -364 -248 -862
-725 -1094 -1047 -11 -15 -45 -61 -75 -101 -30 -41 -65 -87 -78 -104 -12 -16
-29 -43 -38 -60 -9 -16 -28 -43 -41 -59 -13 -16 -35 -50 -49 -75 -14 -25 -40
-71 -59 -101 -19 -30 -47 -80 -63 -110 -16 -30 -45 -84 -64 -120 -71 -131
-142 -281 -154 -320 -4 -14 -20 -49 -35 -79 -16 -30 -29 -63 -29 -74 0 -11
-11 -39 -24 -62 -14 -23 -32 -71 -40 -107 -8 -36 -24 -81 -36 -100 -11 -19
-25 -61 -31 -94 -6 -32 -21 -85 -34 -119 -13 -33 -29 -89 -35 -125 -7 -36 -22
-96 -35 -135 -13 -38 -31 -120 -40 -182 -8 -62 -22 -131 -31 -155 -8 -24 -22
-104 -29 -178 -8 -74 -26 -214 -41 -310 l-27 -175 0 -590 c0 -587 0 -591 26
-760 15 -93 33 -235 42 -315 8 -80 24 -176 35 -214 11 -38 25 -108 30 -155 6
-47 22 -117 35 -156 14 -38 29 -102 34 -141 6 -38 19 -90 30 -115 12 -25 28
-76 36 -113 9 -37 26 -90 39 -119 13 -29 26 -70 30 -92 4 -22 21 -68 37 -102
16 -34 29 -71 29 -82 0 -10 13 -44 29 -74 16 -30 34 -72 41 -93 7 -22 20 -52
30 -69 10 -16 26 -52 36 -80 10 -27 31 -71 46 -96 15 -25 28 -53 28 -60 0 -8
11 -31 25 -52 14 -20 35 -56 46 -79 11 -24 37 -72 59 -108 21 -36 51 -87 66
-115 15 -27 36 -62 48 -77 11 -15 39 -57 61 -93 22 -37 52 -81 66 -98 14 -18
32 -43 39 -57 12 -23 113 -158 169 -226 14 -17 48 -60 76 -95 93 -120 314
-356 472 -507 261 -249 488 -431 773 -621 41 -27 89 -59 105 -71 42 -29 241
-147 295 -175 25 -13 92 -47 150 -77 58 -31 116 -59 130 -63 14 -4 36 -16 49
-26 13 -11 46 -26 74 -34 27 -8 65 -24 84 -35 33 -19 92 -42 262 -101 46 -15
102 -38 125 -49 23 -11 55 -20 70 -20 15 0 61 -13 102 -30 41 -16 105 -35 141
-40 37 -6 94 -20 127 -32 34 -11 113 -29 176 -39 63 -10 153 -27 200 -37 47
-11 126 -23 175 -27 50 -3 140 -12 200 -20 279 -35 369 -40 690 -39 240 0 374
5 490 18 88 9 250 26 360 36 110 10 238 28 284 40 46 12 121 25 167 31 46 5
114 20 151 34 37 13 99 29 136 35 37 6 84 19 104 30 20 11 61 24 92 31 64 13
189 69 213 96 9 10 22 41 28 68 5 28 17 77 24 110 8 33 19 103 25 155 6 52 20
130 31 174 12 43 25 115 31 160 5 44 21 126 34 181 14 55 29 135 35 177 5 42
19 103 30 135 11 32 27 100 35 152 9 52 25 122 36 155 11 34 24 93 30 131 6
39 23 113 39 165 16 52 31 121 35 153 4 32 13 74 21 94 24 57 8 61 -91 23 -46
-18 -90 -39 -96 -46 -6 -7 -35 -20 -64 -29 -30 -8 -75 -26 -102 -39 -26 -13
-66 -28 -88 -32 -22 -4 -71 -19 -110 -34 -38 -16 -95 -31 -125 -35 -30 -4 -98
-18 -150 -31 -121 -31 -375 -47 -630 -39 -214 7 -319 19 -410 45 -36 10 -98
23 -138 29 -41 7 -91 20 -112 31 -22 11 -63 25 -92 31 -29 7 -77 25 -107 40
-30 16 -61 29 -70 29 -10 0 -38 13 -63 29 -25 16 -65 38 -89 50 -165 78 -487
346 -613 509 -100 130 -173 235 -211 307 -65 122 -125 249 -125 265 0 7 -11
38 -25 69 -14 31 -33 92 -44 136 -11 44 -29 113 -40 154 -12 41 -21 95 -21
120 0 25 -7 89 -16 141 -21 119 -25 508 -7 620 7 41 17 130 23 197 6 75 19
152 34 200 14 43 28 101 32 128 3 28 19 80 34 116 15 36 31 81 34 100 4 19 20
61 36 94 79 165 124 253 143 281 12 18 30 45 39 60 148 242 379 474 658 658
69 46 143 92 165 103 22 11 54 27 70 35 95 50 178 88 193 88 9 0 46 14 82 31
36 17 90 35 120 41 30 5 81 20 112 33 32 13 97 28 146 34 48 6 110 17 138 25
115 34 224 41 649 41 429 -1 498 -5 671 -44 49 -10 118 -24 154 -31 36 -6 79
-13 97 -16 29 -5 33 -3 39 21 8 34 0 254 -21 515 -19 247 -35 596 -35 770 0
74 -9 245 -19 380 -27 333 -40 578 -51 945 -5 171 -19 425 -29 565 -11 140
-25 406 -31 590 -14 421 -25 616 -40 656 -14 40 -43 52 -144 65 -45 5 -135 21
-201 34 -71 15 -189 29 -290 35 -300 18 -600 41 -615 46 -26 9 -1040 12 -1150
3z"/>
<path d="M42770 33933 c-10 -7 -21 -32 -25 -55 -9 -61 -33 -177 -44 -218 -6
-19 -15 -83 -21 -142 -6 -59 -20 -142 -31 -185 -11 -43 -26 -132 -34 -198 -7
-66 -23 -158 -34 -205 -12 -47 -26 -130 -32 -185 -5 -55 -22 -154 -38 -220
-16 -66 -32 -151 -36 -190 -3 -38 -17 -114 -30 -168 -14 -53 -29 -139 -35
-190 -6 -50 -21 -135 -34 -187 -13 -52 -27 -129 -31 -170 -4 -41 -18 -118 -32
-170 -13 -52 -31 -143 -39 -202 -8 -58 -23 -135 -34 -170 -11 -35 -25 -103
-30 -153 -6 -49 -21 -130 -34 -180 -14 -49 -32 -140 -41 -202 -8 -62 -22 -131
-31 -155 -8 -24 -22 -89 -30 -146 -16 -114 -28 -176 -44 -217 -6 -15 -18 -75
-26 -134 -9 -58 -25 -133 -35 -166 -11 -33 -26 -107 -34 -165 -8 -58 -24 -132
-35 -165 -11 -33 -26 -106 -34 -162 -9 -57 -24 -129 -35 -161 -10 -33 -24
-101 -31 -153 -7 -52 -21 -119 -31 -149 -11 -30 -26 -97 -35 -148 -8 -51 -23
-115 -34 -141 -10 -26 -26 -90 -35 -142 -8 -52 -26 -128 -39 -169 -13 -41 -27
-102 -31 -135 -4 -32 -18 -89 -31 -125 -13 -37 -29 -101 -34 -143 -6 -42 -21
-107 -34 -144 -13 -37 -27 -90 -30 -118 -10 -74 -27 -147 -42 -176 -7 -14 -20
-71 -29 -125 -9 -54 -24 -122 -34 -150 -11 -27 -27 -93 -35 -145 -9 -52 -25
-119 -36 -149 -11 -30 -24 -89 -30 -130 -6 -41 -22 -106 -36 -145 -13 -38 -28
-103 -34 -144 -6 -40 -21 -106 -34 -145 -14 -39 -28 -98 -32 -131 -4 -33 -17
-91 -30 -130 -13 -38 -31 -110 -39 -160 -8 -49 -24 -116 -35 -147 -11 -32 -24
-88 -30 -125 -5 -38 -22 -111 -38 -163 -16 -52 -32 -121 -36 -153 -3 -31 -17
-85 -29 -120 -13 -34 -30 -98 -37 -142 -6 -44 -21 -103 -31 -130 -10 -28 -25
-90 -34 -138 -8 -48 -26 -120 -39 -160 -14 -39 -28 -99 -31 -132 -4 -33 -18
-89 -31 -125 -14 -35 -29 -97 -35 -137 -6 -40 -19 -99 -30 -130 -11 -32 -29
-102 -40 -156 -11 -54 -28 -119 -38 -145 -10 -26 -21 -72 -25 -103 -7 -59 -28
-135 -45 -167 -6 -11 -15 -53 -21 -93 -6 -41 -24 -113 -41 -161 -16 -47 -29
-96 -29 -108 0 -13 -5 -41 -12 -63 -11 -37 -10 -41 11 -58 22 -18 61 -19 1021
-19 870 0 999 2 1010 15 17 21 68 171 76 225 4 25 16 70 26 100 18 50 25 79
59 225 6 28 18 62 25 77 8 15 21 61 28 102 8 41 26 107 39 148 14 40 30 101
36 135 6 34 21 82 32 107 11 25 22 74 26 110 7 78 14 91 44 83 25 -7 89 -91
89 -118 0 -9 12 -34 26 -55 15 -21 33 -57 41 -79 7 -22 24 -56 37 -75 12 -19
26 -47 29 -61 4 -14 19 -43 33 -65 15 -21 31 -53 36 -70 4 -18 19 -47 32 -66
13 -20 29 -53 36 -74 7 -22 21 -51 31 -65 10 -14 27 -51 39 -81 11 -31 27 -62
35 -68 8 -7 20 -31 26 -54 6 -22 24 -61 40 -85 16 -25 29 -51 29 -59 0 -9 12
-36 27 -61 15 -25 35 -68 45 -95 10 -27 24 -56 33 -65 8 -10 21 -37 30 -61 9
-24 29 -66 46 -92 35 -54 63 -62 95 -27 10 12 100 93 199 179 193 170 434 360
592 468 26 18 64 44 83 57 19 14 54 33 77 44 22 11 60 33 84 50 23 17 46 31
51 31 6 0 22 8 36 19 28 19 88 53 182 104 30 17 64 38 75 47 11 10 31 21 45
25 14 4 49 23 78 42 37 25 68 37 101 41 43 4 51 2 65 -20 9 -13 20 -47 26 -75
5 -29 18 -68 29 -89 11 -21 25 -62 32 -93 6 -31 22 -79 35 -107 13 -28 28 -74
34 -102 5 -29 19 -72 30 -97 11 -25 29 -78 39 -118 10 -40 26 -85 34 -101 9
-16 21 -52 28 -80 6 -28 16 -57 22 -63 14 -18 3887 -19 3905 -1 17 17 15 43
-8 88 -11 21 -25 72 -31 112 -6 40 -24 116 -40 168 -16 52 -33 127 -38 165 -6
39 -20 97 -31 130 -11 33 -27 98 -35 144 -8 46 -26 118 -39 160 -13 42 -27
102 -31 134 -3 32 -18 89 -31 128 -13 38 -29 103 -35 144 -5 41 -21 105 -34
142 -13 37 -28 102 -34 143 -6 41 -22 107 -35 146 -13 39 -27 97 -31 130 -4
32 -20 101 -36 152 -16 51 -31 116 -35 145 -3 28 -19 93 -34 142 -15 50 -31
116 -35 148 -3 32 -18 89 -31 128 -13 38 -29 104 -35 147 -6 42 -18 95 -26
117 -19 51 -43 152 -43 185 0 14 -13 64 -29 112 -17 47 -33 115 -37 149 -3 35
-17 94 -29 131 -13 37 -29 102 -35 145 -6 43 -22 112 -35 153 -14 41 -29 109
-35 150 -6 41 -22 107 -35 145 -13 39 -28 107 -34 150 -6 44 -22 112 -35 151
-13 39 -27 97 -31 130 -4 32 -18 93 -31 134 -13 41 -30 116 -38 165 -8 50 -24
116 -36 147 -11 32 -25 93 -31 135 -6 43 -21 110 -34 148 -13 39 -28 106 -34
151 -6 44 -20 104 -31 132 -11 29 -27 94 -36 145 -8 50 -24 119 -34 152 -11
33 -26 105 -35 160 -8 55 -24 129 -35 165 -12 35 -25 98 -31 140 -5 41 -21
113 -34 160 -14 47 -31 126 -39 175 -8 50 -23 121 -35 159 -11 37 -25 105 -31
150 -6 44 -20 107 -31 140 -11 32 -26 100 -34 150 -7 50 -25 132 -39 181 -14
50 -28 119 -32 155 -4 36 -17 98 -30 139 -13 41 -28 111 -34 155 -6 45 -22
119 -35 166 -13 47 -29 120 -35 163 -5 44 -21 117 -35 164 -13 46 -27 112 -30
146 -4 34 -17 98 -31 142 -13 44 -31 130 -40 190 -9 61 -20 117 -25 126 -10
20 -35 134 -48 225 -6 39 -17 89 -25 111 -8 22 -20 76 -26 119 -6 44 -20 115
-31 159 -11 44 -27 123 -35 175 -9 52 -27 137 -40 188 -14 52 -29 128 -35 170
-11 81 -18 111 -44 206 -9 32 -23 106 -31 165 -7 58 -23 139 -34 180 -11 40
-25 112 -30 160 -20 161 -44 221 -89 221 -9 0 -963 1 -2120 3 -1665 1 -2107
-1 -2121 -10z m1297 -6244 c23 -46 42 -90 43 -97 0 -7 16 -43 35 -81 19 -37
35 -73 35 -80 0 -8 13 -37 29 -65 16 -28 32 -64 35 -81 4 -16 18 -47 31 -67
13 -20 27 -49 31 -65 4 -15 19 -50 34 -78 16 -27 34 -70 40 -95 7 -25 21 -59
31 -77 11 -17 27 -55 35 -85 9 -29 24 -64 34 -78 10 -14 23 -44 29 -66 6 -23
24 -68 41 -100 16 -33 30 -68 30 -79 0 -11 12 -45 26 -75 14 -30 35 -86 46
-125 10 -38 25 -80 33 -91 8 -12 21 -50 30 -85 9 -34 27 -84 41 -110 13 -27
24 -58 24 -70 0 -11 15 -55 33 -97 19 -43 37 -96 41 -119 3 -24 15 -60 26 -80
10 -21 28 -69 39 -108 10 -38 31 -97 45 -130 27 -64 32 -96 16 -124 -11 -22
-93 -56 -174 -71 -33 -7 -79 -20 -103 -31 -24 -10 -83 -26 -131 -35 -48 -9
-110 -25 -137 -35 -28 -10 -96 -25 -150 -33 -55 -8 -136 -24 -180 -35 -44 -12
-145 -26 -225 -31 -80 -6 -197 -19 -260 -30 -174 -28 -195 -30 -382 -39 -207
-10 -213 -9 -205 59 3 26 17 74 31 106 13 33 29 87 35 120 6 34 22 88 35 120
13 33 29 85 35 117 6 32 20 79 31 105 12 26 27 79 35 119 8 39 23 89 33 110
11 21 26 68 33 103 6 36 22 85 34 110 13 25 28 72 35 105 7 33 20 76 30 96 10
19 26 64 35 99 9 35 25 80 35 100 10 20 26 64 34 98 9 34 25 77 36 95 11 19
27 61 36 93 8 33 23 73 33 89 9 17 23 52 30 79 6 27 22 69 35 95 13 25 28 69
35 96 7 28 21 65 32 84 11 19 26 57 34 86 7 29 24 74 38 102 14 27 29 67 33
88 4 22 15 53 26 70 10 16 28 61 39 99 12 39 30 86 40 105 10 20 19 40 19 45
0 15 33 47 44 43 6 -2 30 -41 53 -88z"/>
<path d="M49614 33937 c-17 -10 -19 -207 -4 -417 21 -300 40 -717 50 -1115 6
-231 15 -492 20 -580 25 -400 40 -743 45 -1020 3 -165 17 -523 32 -795 23
-443 28 -497 44 -514 17 -19 23 -19 111 -7 177 24 334 39 468 46 74 3 203 15
285 25 184 23 288 28 807 40 410 10 459 7 472 -25 2 -7 10 -116 15 -242 14
-303 17 -346 41 -568 11 -104 24 -300 30 -435 6 -135 17 -310 25 -390 31 -309
36 -375 45 -690 5 -179 16 -415 24 -525 25 -331 36 -553 46 -905 5 -184 16
-420 24 -525 22 -287 36 -562 46 -955 5 -195 18 -492 29 -660 11 -168 23 -404
27 -525 5 -176 10 -224 22 -237 14 -17 109 -18 1717 -18 1346 0 1705 3 1717
13 13 10 18 51 28 232 6 121 20 328 30 460 11 132 24 375 30 540 6 165 21 440
35 610 13 171 27 402 30 515 7 247 18 446 44 805 11 149 25 416 31 595 6 179
19 435 30 570 11 135 25 355 30 490 9 235 30 516 50 702 6 48 15 194 20 325 9
224 26 428 49 588 6 39 11 105 11 148 0 127 -25 119 383 112 511 -9 846 -24
997 -45 74 -10 194 -21 265 -25 72 -3 189 -15 260 -27 189 -30 188 -30 215
-16 20 11 25 22 26 54 1 23 7 120 13 215 5 96 13 282 16 414 7 298 19 560 45
960 10 171 24 474 30 675 10 346 18 501 40 790 6 69 14 292 20 495 9 359 24
666 36 772 5 45 4 53 -14 62 -25 13 -8864 21 -8888 8z"/>
<path d="M67700 33939 c-50 -11 -53 -18 -41 -115 6 -49 16 -206 22 -349 5
-143 21 -379 34 -525 14 -146 29 -375 35 -510 6 -135 22 -382 35 -550 14 -168
29 -432 35 -587 5 -156 16 -354 25 -440 22 -238 34 -464 45 -818 5 -176 16
-403 24 -505 23 -276 35 -546 41 -925 4 -187 15 -495 26 -685 26 -467 37 -750
44 -1100 4 -162 15 -448 26 -635 10 -187 24 -482 29 -655 6 -173 15 -454 20
-625 5 -170 16 -418 24 -550 20 -312 36 -754 36 -959 0 -90 3 -232 7 -316 5
-130 9 -156 25 -172 17 -17 90 -18 2013 -18 l1995 0 14 23 c12 17 15 71 15
262 2 483 22 1644 36 2180 9 303 18 657 22 788 5 205 8 242 23 260 15 18 20
19 33 8 9 -7 19 -27 22 -44 4 -18 20 -57 35 -87 66 -131 158 -327 165 -350 4
-14 20 -48 36 -76 16 -28 29 -58 29 -66 0 -8 13 -39 29 -69 15 -30 34 -72 41
-94 7 -22 26 -66 41 -97 16 -32 29 -65 29 -74 0 -9 13 -40 29 -68 15 -28 34
-72 41 -98 7 -26 19 -53 26 -59 8 -6 23 -41 34 -76 11 -36 31 -86 44 -111 13
-26 29 -64 36 -86 11 -34 33 -75 73 -131 16 -22 15 -22 112 35 48 28 172 90
335 167 41 19 102 48 135 64 137 64 218 99 233 99 8 0 38 13 66 28 28 16 65
32 81 36 17 4 58 21 92 37 66 32 115 33 127 3 3 -8 10 -249 16 -537 10 -523
16 -686 46 -1432 15 -377 17 -401 36 -417 19 -17 119 -18 1802 -18 1413 0
1786 3 1806 13 24 12 25 18 32 122 3 61 13 345 22 633 15 506 20 611 51 1152
8 140 17 395 20 565 6 308 11 441 40 1000 9 160 20 497 25 750 10 520 27 974
40 1115 9 96 21 344 40 812 6 142 19 371 29 510 11 139 22 345 26 458 8 292
22 556 45 850 10 140 22 363 25 495 6 252 13 367 45 760 10 132 22 341 25 465
6 216 24 499 45 680 6 47 15 208 21 359 8 228 8 276 -3 288 -12 11 -392 13
-2314 13 l-2299 1 -17 -22 c-10 -11 -16 -31 -14 -43 10 -49 17 -158 26 -461 6
-176 19 -430 30 -565 24 -295 40 -619 40 -792 0 -70 7 -207 15 -305 27 -333
44 -617 50 -853 4 -129 13 -323 21 -430 30 -391 34 -462 49 -860 8 -223 17
-421 20 -440 13 -86 35 -472 45 -770 6 -179 17 -404 25 -500 13 -156 22 -291
40 -608 8 -142 13 -140 -340 -172 -160 -15 -887 -24 -1188 -15 -288 8 -296 10
-297 75 -5 176 30 966 55 1285 8 99 19 340 25 535 9 321 23 566 50 930 5 69
12 224 15 345 9 317 23 611 45 920 10 149 21 387 25 530 6 273 13 401 45 860
10 154 22 399 25 545 6 270 29 690 40 746 8 37 -14 64 -53 64 -1560 4 -4910 3
-4932 -1z"/>
</g>
</svg>
