<?xml version="1.0" encoding="UTF-8"?>
<!DOCTYPE svg PUBLIC "-//W3C//DTD SVG 1.1//EN" "http://www.w3.org/Graphics/SVG/1.1/DTD/svg11.dtd">
<!-- Creator: CorelDRAW X7 -->
<svg xmlns="http://www.w3.org/2000/svg" xml:space="preserve" width="5.33266in" height="5.33266in" version="1.1" shape-rendering="geometricPrecision" text-rendering="geometricPrecision" image-rendering="optimizeQuality" fill-rule="evenodd" clip-rule="evenodd"
viewBox="0 0 4641 4641"
 xmlns:xlink="http://www.w3.org/1999/xlink">
 <g id="Layer_x0020_1">
  <metadata id="CorelCorpID_0Corel-Layer"/>
  <path fill="#FEFEFE" d="M1737 1187c85,-22 148,8 207,42l1545 894c112,80 155,241 40,363 -52,54 -1274,747 -1367,800 -79,46 -272,176 -367,178 -178,2 -243,-140 -243,-291l1 -1632c0,-191 14,-311 184,-354zm2904 989l0 273c-2,150 -17,254 -79,499 -145,572 -583,1112 -1096,1397 -34,19 -55,28 -88,48 -32,19 -59,26 -93,43 -210,106 -589,205 -901,205 -385,0 -616,-42 -956,-177 -39,-16 -56,-27 -93,-43 -104,-44 -269,-143 -361,-209 -314,-227 -625,-586 -773,-950 -60,-145 -103,-257 -141,-430 -35,-156 -60,-326 -60,-511 0,-738 334,-1375 891,-1829 82,-66 162,-117 254,-172 63,-37 112,-68 184,-97 394,-163 563,-223 1055,-223 653,0 1302,336 1698,804 23,27 40,45 63,73 268,326 496,875 496,1299z"/>
  <path fill="#EF4D76" d="M1688 1120c-180,47 -195,173 -195,376l0 1727c-1,160 68,310 256,307 101,-1 305,-139 389,-188 98,-56 1392,-789 1446,-846 122,-130 77,-300 -42,-385l-1635 -946c-63,-36 -129,-68 -219,-45z"/>
 </g>
</svg>
